<svg xmlns="http://www.w3.org/2000/svg" xmlns:xlink="http://www.w3.org/1999/xlink" width="305" height="90" viewBox="0 0 305 90">
    <defs>
        <filter id="a" width="118.2%" height="171.1%" x="-9.1%" y="-35.5%" filterUnits="objectBoundingBox">
            <feOffset dy="10" in="SourceAlpha" result="shadowOffsetOuter1"/>
            <feGaussianBlur in="shadowOffsetOuter1" result="shadowBlurOuter1" stdDeviation="2"/>
            <feColorMatrix in="shadowBlurOuter1" result="shadowMatrixOuter1" values="0 0 0 0 0 0 0 0 0 0 0 0 0 0 0 0 0 0 0.5 0"/>
            <feMerge>
                <feMergeNode in="shadowMatrixOuter1"/>
                <feMergeNode in="SourceGraphic"/>
            </feMerge>
        </filter>
        <path id="b" d="M0 .196h127.87v66.612H0z"/>
        <path id="d" d="M.426.373h163.2V76H.425z"/>
    </defs>
    <g fill="none" fill-rule="evenodd" filter="url(#a)" transform="translate(4)">
        <g transform="translate(0 7)">
            <mask id="c" fill="#fff">
                <use xlink:href="#b"/>
            </mask>
            <path fill="#F6F9DE" d="M36.271 26.055l-.011.312-.022.623a68.587 68.587 0 0 0-.56.18l.593-1.115m86.07 6.953c-.373.017-.74.076-1.091.173l-.623.023-1.192.923c-.78.602-1.845 1.185-3.165 1.73-.823.341-2.402.781-5.248.947-1.553.092-2.956-.03-4.17-.36-1.004-.272-1.81-.672-2.392-1.19-.527-.468-.916-1.082-1.19-1.881-.31-.907-.396-2.054-.256-3.409.26-2.51.906-4.522 1.92-5.976.614-.881 1.18-1.345 1.681-1.38.6-.04 1.115 0 1.525.121.502.15.926.332 1.225.528l.06.04c.03.179.068.356.114.531a4.931 4.931 0 0 0 2.61 3.216c.786.383 2.404.896 4.419.024l.345-.167c.8-.427 1.653-1.005 2.614-1.77a37.406 37.406 0 0 0 2.353-2.042 27.308 27.308 0 0 0 2.04-2.126c.834-.976 1.324-1.715 1.64-2.467l.308-.738.048-.798c.067-1.128-.196-3.27-2.721-4.942-.819-.54-1.824-.987-3.073-1.364-1.076-.324-2.287-.563-3.704-.73-1.4-.164-2.977-.195-4.691-.093-2.192.133-4.61.634-7.39 1.53-2.773.894-5.486 2.264-8.07 4.07a5.039 5.039 0 0 0-3.681-.323 5.51 5.51 0 0 0-.86.334 7.323 7.323 0 0 1-.427-.357c-.6-.54-1.186-1.037-1.742-1.478-1.435-1.14-3.201-1.664-4.972-1.481-2.394.249-4.79 1.456-7.312 3.687a6.825 6.825 0 0 0-.929-1.012c-1.376-1.226-3.207-1.764-5.163-1.52-1.102.139-2.299.565-4.005 1.425a86.79 86.79 0 0 0-3.756 2.02 97.947 97.947 0 0 0-3.802 2.27c-1.155.726-2.03 1.289-2.622 1.68-1.422.869-2.36 2.203-2.65 3.776-.314 1.7.234 3.405 1.467 4.562a4.969 4.969 0 0 0 4.24 1.264c-.003.31-.017.676-.049 1.106-.113 1.536-.367 3.469-.754 5.747-.168.99-.375 2.012-.614 3.036a70.63 70.63 0 0 1-.791 3.072 162.672 162.672 0 0 1-.842 2.883l-.187.62-.022.077a4.881 4.881 0 0 0-1.974-.235 167.403 167.403 0 0 1-.416-6.425c-.128-2.7-.208-5.618-.237-8.67-.03-3.02-.01-5.99.06-8.824.068-2.733.173-5.26.313-7.509.05-.8.102-1.461.151-2.008.356-.072.698-.141 1.027-.204a43.099 43.099 0 0 0 3.386-.78c1.275-.357 2.324-.798 3.206-1.346 1.61-1.002 2.683-2.53 3.017-4.305.327-1.74-.193-3.457-1.421-4.703C62.696.578 61.086.011 59.49.25l-1.214.182-.504.39c-.161.05-.4.122-.738.213-1 .271-2.266.59-3.873.974-1.526.365-3.182.739-5.066 1.142-1.795.384-3.557.731-5.242 1.03-.695.125-1.786.297-3.272.529-1.404.22-3.043.426-4.87.615-1.775.182-3.685.343-5.678.479-1.82.123-3.454.138-4.86.043l-1.693-.114-1.378.991c-1.3.937-2.19 2.202-2.573 3.653a7.158 7.158 0 0 0-.154 3.01c.342 2.08 1.644 3.685 3.484 4.292l.752.249.794-.012c.68-.01 1.488-.06 2.446-.15a228.363 228.363 0 0 1-2.394 5.659 256.255 256.255 0 0 1-4.508 9.727 245.326 245.326 0 0 1-4.434 8.632c-1.304 2.411-2.543 4.529-3.58 6.125-1.604 2.466-2.787 4.188-3.726 5.419-.963 1.261-1.711 1.888-2.167 2.19a30.811 30.811 0 0 1-1.89 1.174 5.448 5.448 0 0 0-2.937 3.51 5.64 5.64 0 0 0-.087 2.735 4.903 4.903 0 0 0 2.163 3.117c.788.499 1.683.754 2.582.754.35 0 .699-.038 1.043-.116.414-.09.83-.231 1.31-.443.112-.044.27-.094.47-.157.411-.128.968-.287 1.662-.476.714-.193 1.636-.41 2.739-.645a57.98 57.98 0 0 1 2.566-.481c.9-.149 1.772-.279 2.596-.387l2.201-.286c.903-.12 1.2-.166 1.43-.212 1.805-.358 3.419-1.05 4.795-2.055.587-.43 1.1-.814 1.534-1.14l.505-.377c.443-.33.91-.687 1.336-1.07.448-.403 1.496-1.348 1.856-2.894a4.812 4.812 0 0 0-1.201-4.457c-.697-.726-2.241-1.873-4.78-1.393-.075.013-.15.03-.227.046l.052-.125a81.517 81.517 0 0 1 1.423-3.237 227.155 227.155 0 0 1 1.607-3.381c.263-.54.486-1.088.683-1.572l.072-.176a51.658 51.658 0 0 1 1.487-.426 52.066 52.066 0 0 1 4.354-.996 58.674 58.674 0 0 1 1.554-.265l-.007.342c-.043 2.024-.079 3.932-.109 5.723-.022 1.353-.045 2.56-.07 3.619a5.37 5.37 0 0 0-2.87 2.21 6.393 6.393 0 0 0-.866 2.111 5.667 5.667 0 0 0 .223 3.25c.87 2.263 3.139 3.555 5.5 3.147.318-.054.739-.148 1.46-.325.527-.13 1.124-.272 1.79-.423.686-.156 1.41-.318 2.17-.483.684-.15 1.31-.27 1.862-.358a119.09 119.09 0 0 1 4.571-.655l3.061-.365c.88-.105 1.316-.136 1.505-.144.603-.03 1.068-.07 1.463-.127a5.461 5.461 0 0 0 2.912-1.356c.23.1.47.194.728.273.736.227 1.528.34 2.393.34.484 0 .99-.035 1.523-.105 1.125-.148 2.362-.511 3.781-1.11.97-.41 1.988-.848 2.855-1.27.42-.204.9-.445 1.44-.714.476-.239 1-.5 1.57-.78a112.663 112.663 0 0 1 3.227-1.53 5.904 5.904 0 0 0 1.4-.821c1.451-1.116 1.917-2.445 2.05-3.364a6.1 6.1 0 0 0-.076-2.105c-.294-1.478-1.199-2.726-2.479-3.426a4.856 4.856 0 0 0-2.13-.59l.041-.272a33.79 33.79 0 0 1 1.043-4.455 26.84 26.84 0 0 1 1.67-4.238c.562-1.119 1.193-2.048 1.877-2.761a.156.156 0 0 1 .01-.01c.558.37 1.164.71 1.8 1.01 1.268.599 2.687.824 4.21.667.02-.002.042-.008.063-.01a27.66 27.66 0 0 0-.474 2.747c-.727 6.08.768 10.889 4.444 14.292 3.084 2.858 7.381 4.3 12.796 4.3.731 0 1.484-.027 2.256-.08 2.247-.153 4.558-.676 6.865-1.553a51.214 51.214 0 0 0 5.989-2.72c1.883-1.007 3.589-2.03 5.07-3.039a175.692 175.692 0 0 0 3.267-2.27l.36-.286c1.057-.93 1.682-2.234 1.759-3.682a5.61 5.61 0 0 0-.802-3.232c-.991-1.618-2.754-2.543-4.72-2.45" mask="url(#c)"/>
        </g>
        <g transform="translate(133)">
            <mask id="e" fill="#fff">
                <use xlink:href="#d"/>
            </mask>
            <path fill="#F6F9DE" d="M26.265 13.251a6.038 6.038 0 0 1 3.025-.692c1.424.032 2.749.387 4.048 1.087 1.353.728 2.547 1.794 3.65 3.258 1.206 1.599 2.244 3.63 3.086 6.036.87 2.486 1.415 5.385 1.616 8.613.166 2.66-.002 5.003-.5 6.963-.466 1.843-1.145 3.364-2.015 4.52-.823 1.09-1.745 1.883-2.819 2.426l-.003.001c-1.01.511-2.06.746-3.22.715-.47-.012-1.539-.149-3.4-.934-1.403-.591-2.794-1.575-4.133-2.924-1.377-1.386-2.582-3.24-3.586-5.514-.963-2.182-1.45-5.006-1.45-8.394 0-2.952.3-5.572.89-7.787.542-2.038 1.269-3.703 2.159-4.948.8-1.118 1.667-1.912 2.652-2.426m27.977 34.656a29.075 29.075 0 0 0 2.59-3.34 27.827 27.827 0 0 0 3.55-7.695 23.93 23.93 0 0 0 .555-2.386c.11 1.125.187 2.292.224 3.48.04 1.278.05 2.493.027 3.611-.024 1.224-.039 2.32-.042 3.282-.003 1.106.026 1.956.09 2.597.066.667.201 1.313.371 1.947a64 64 0 0 0-3.27-.74 144.846 144.846 0 0 0-4.095-.756m50.143-11.281c.024.061.049.13.074.203.233.683.439 1.49.61 2.393l.434 2.288c.18.946.355 2.106.522 3.444.132 1.058.248 2.103.363 3.148l-.555.311a7.556 7.556 0 0 1-.587.186c-.001 0-.091.024-.312 0-.068-.043-.25-.177-.522-.514-.531-.66-.902-1.617-1.105-2.847-.151-.914-.318-2.33-.494-4.206a427.206 427.206 0 0 1-.387-4.474l-.02-.233c.302.11.624.203.983.254a5.4 5.4 0 0 0 .996.047m18.04 3.883l2.343.397 1.125-1.082c.263.03.633.081 1.133.172 1.537.277 3.288.661 5.204 1.142.333.083.663.165.988.244a170.12 170.12 0 0 1-2.715 4.775 155.807 155.807 0 0 1-2.15 3.515 49.956 49.956 0 0 1-1.566 2.343c-.217.012-.443.02-.687.015a6.903 6.903 0 0 1-1.06-.08c-.456-.075-.65-.168-.657-.168a1.251 1.251 0 0 1-.357-.363 3.354 3.354 0 0 1-.38-.944 48.56 48.56 0 0 1-.555-2.427l-.638-3.142a83.19 83.19 0 0 1-.804-4.588c.261.084.518.147.776.191m41.005 20.808c-.01-.044-.019-.097-.029-.154a5.208 5.208 0 0 0-.157-.643l.36-1.207-1.947-1.197a5.277 5.277 0 0 0-1.532-.91c-1.002-.477-3.087-1.047-5.328.843-.4.011-1.299-.035-3.087-.408a47.859 47.859 0 0 1-4.396-1.126c-1.398-.435-2.69-.86-3.845-1.27.962-1.23 1.97-2.583 2.999-4.022a6.72 6.72 0 0 0 .68-1.15c1.984-2.729 3.577-5.156 4.737-7.216.924-1.645 1.478-2.032 1.478-2.033l2.929-1.834-.695-2.585a5.037 5.037 0 0 0-.175-1.123c-.183-.675-.5-1.322-.964-1.974-.312-.438-1.26-1.773-3.105-2.174l-.59-.13-.604.025c-.284.012-.8.007-1.636-.075a19.51 19.51 0 0 1-2.129-.33 62.264 62.264 0 0 1-3.885-.954c-1.363-.38-2.64-.758-3.798-1.125a45.517 45.517 0 0 1-3.054-1.078c-.908-.362-1.463-.618-1.798-.79a7.973 7.973 0 0 0-1.033-1.03c-.788-.653-1.756-1.09-2.867-1.294-2.559-.476-4.28 1.147-5.102 1.92-.526.494-1.143 1.066-1.856 1.712a608.003 608.003 0 0 1-2.357 2.13 14.353 14.353 0 0 0-.206-1.428l-.055-.27a7.058 7.058 0 0 0-1.353-2.912 6.109 6.109 0 0 0-1.483-1.367c1.998-1.935 1.85-4.035 1.67-4.908-.251-1.212-.905-2.148-1.88-3.265a41.438 41.438 0 0 0-1.979-2.105 39.224 39.224 0 0 0-2.15-1.997c-.96-.82-1.804-1.436-2.808-1.775l-1.156-.39-1.2.221c-.598.11-1.134.305-2.2.805-.77.36-1.565.807-2.365 1.331-.68.447-1.31.883-1.875 1.3-2.699 1.997-2.731 4.292-2.512 5.47.27 1.479 1.141 2.513 2.009 3.445.595.639 1.263 1.305 1.985 1.98.47.44.93.846 1.386 1.237l-.249.087-.516.184c-.848.3-1.47.546-1.966.778-.117-1.031-.304-1.605-.5-2.052a9.445 9.445 0 0 0-.204-.448l-.24-1.434-2.141-1.063c-.965-.48-2.103-.735-3.476-.783a25.8 25.8 0 0 0-2.823.071 31.308 31.308 0 0 0-3.036.382c-.846.15-1.832.334-2.75.577-.945.251-1.716.516-2.29.785-2.57 1.204-3.34 3.639-2.964 5.516.37 1.847 1.592 3.308 3.187 3.972.132.415.285.95.453 1.64.341 1.4.635 3.025.926 5.117.05.35.11.796.168 1.321l.203 1.828c.07.617.135 1.203.195 1.759.058.539.114.99.165 1.356.022.324.032.586.036.794l-.088.042c-.004.002-.484.214-1.889.069-2.392-.25-4.08-.937-5.157-2.1-1.19-1.285-1.906-3.11-2.19-5.582-.087-.77-.16-1.89-.216-3.323a403.765 403.765 0 0 1-.149-4.598c-.038-1.502-.052-2.88-.04-4.098.009-.852.034-1.253.048-1.414.513-2.128-.368-4.304-2.262-5.498-.837-.527-1.714-.834-2.585-.91a6.18 6.18 0 0 0-1.993.149l-.249.058c-.198.047-.475.111-.83.19a72.546 72.546 0 0 0-3.128.762c-1.09.291-2.137.568-3.146.83-1.05.274-1.955.517-2.7.728l-.202.058a28.383 28.383 0 0 0-1.792-4.304c-1.716-3.307-3.916-6.205-6.538-8.612a30.427 30.427 0 0 0-8.933-5.704A29.3 29.3 0 0 0 32.136.385c-4-.12-7.925.608-11.684 2.122a33.23 33.23 0 0 0-9.899 6.19 32.94 32.94 0 0 0-7.112 9.174C1.535 21.508.523 25.398.434 29.43c-.093 4.152.608 8.01 2.081 11.465a25.685 25.685 0 0 0 6.442 9.052c2.717 2.452 6.046 4.412 9.896 5.822 3.738 1.37 7.892 2.117 12.347 2.22l1.037.025c.295.006.597.003.911-.014.868.132 1.758.302 2.654.506.363.083.727.17 1.09.257.874.21 1.779.429 2.688.587l.653.114c3.628.63 7.055 1.225 9.49 2.075 2.589.905 4.702 1.873 6.281 2.875.116.074.227.146.334.217-.04.027-.08.053-.118.08-1.687 1.185-2.591 3.151-2.42 5.26.17 2.086 1.44 3.89 3.485 4.952A9.354 9.354 0 0 0 61.665 76c1.911 0 3.715-.54 5.254-1.576a11.608 11.608 0 0 0 3.523-3.757 15.26 15.26 0 0 0 1.707-4.256c.26-1.106.393-2.18.397-3.207.212-.4.397-.814.554-1.24a8.632 8.632 0 0 0 .505-2.347c.947.213 1.93.37 2.952.464 1.613.15 3.332.058 5.114-.27 1.6-.295 3.208-.727 4.78-1.286.928-.33 1.842-.683 2.733-1.059.374.727.8 1.393 1.271 1.989 1.476 1.863 3.155 2.418 4.303 2.556.401.048.82.072 1.256.072.987 0 2.07-.124 3.277-.373a46.153 46.153 0 0 0 4.215-1.093 53.6 53.6 0 0 0 4.09-1.443c.079-.03.146-.06.223-.09a9.324 9.324 0 0 0 2.254 3.212c1.455 1.358 3.25 2.207 5.335 2.524 1.427.216 3.03.208 4.9-.027.274-.034.551-.072.834-.114a5.218 5.218 0 0 0 2.83 1.438l.56.092.565-.043a63.391 63.391 0 0 0 1.972-.176c-.002 0 .227-.01.772.084a51.53 51.53 0 0 1 4.078.89c1.552.4 3.125.832 4.678 1.283 1.63.473 3.22.924 4.766 1.35 1.63.45 3.154.819 4.532 1.095 1.88.376 3.585.563 5.165.563.544 0 1.073-.023 1.589-.067 2.062-.174 3.788-.555 5.274-1.164 1.792-.732 3.197-1.738 4.172-2.984 1.83-2.335 1.638-4.556 1.335-5.723" mask="url(#e)"/>
        </g>
        <path fill="#3B3068" d="M41.562 24.157a723.68 723.68 0 0 1-.143 4.606c-.054 1.631-.11 3.232-.168 4.8-.057 1.57-.088 2.882-.094 3.936-1.107.319-2.327.691-3.66 1.12-1.333.428-2.67.873-4.01 1.332-1.34.46-2.61.899-3.806 1.317a64.072 64.072 0 0 0-2.985 1.114 127.81 127.81 0 0 1 2.173-4.638c.84-1.715 1.726-3.45 2.654-5.202.928-1.75 1.852-3.46 2.773-5.125a75.268 75.268 0 0 1 2.653-4.468c.85-1.314 1.605-2.38 2.269-3.195.662-.816 1.217-1.264 1.667-1.346.224-.04.402.075.534.345.132.27.199.974.202 2.11.001.758-.02 1.858-.059 3.294m8.568-2.222c.142-2.262.32-3.896.531-4.903.092-.437.254-.696.489-.778a147.47 147.47 0 0 1 3.954-.825 38.424 38.424 0 0 0 3.014-.69c.832-.231 1.494-.5 1.99-.808.495-.306.788-.7.879-1.179a.586.586 0 0 0-.158-.549c-.145-.146-.264-.215-.353-.201-.205.158-.846.38-1.923.67-1.079.292-2.416.626-4.01 1.006-1.594.381-3.32.767-5.174 1.161-1.855.397-3.655.75-5.4 1.059-.716.127-1.842.306-3.372.543a99.685 99.685 0 0 1-5.114.643c-1.876.193-3.825.355-5.842.492-2.019.137-3.851.153-5.494.044-.414.297-.673.643-.778 1.04a2.471 2.471 0 0 0-.058 1.046c.056.343.16.54.316.591.844-.012 1.975-.105 3.392-.271a179.39 179.39 0 0 0 4.374-.57c1.498-.213 2.926-.428 4.282-.645 1.355-.218 2.393-.39 3.11-.522a1980.684 1980.684 0 0 0-6.676 4.231 217.077 217.077 0 0 1-4.051 9.82 256.345 256.345 0 0 1-9.11 18.635c-1.457 2.684-2.73 4.83-3.774 6.426-1.532 2.35-2.84 4.265-3.928 5.685-1.09 1.423-2.196 2.514-3.313 3.25-1.05.69-1.857 1.178-2.394 1.463a.775.775 0 0 0-.494.547.982.982 0 0 0-.027.474c.03.138.094.197.192.176a2.43 2.43 0 0 0 .422-.156 9.38 9.38 0 0 1 .953-.335 52.343 52.343 0 0 1 1.834-.525c.77-.208 1.767-.444 2.99-.703a61.57 61.57 0 0 1 2.776-.52 80.56 80.56 0 0 1 2.751-.407c.865-.114 1.6-.208 2.203-.287a25.73 25.73 0 0 0 1.125-.16c1.129-.223 2.107-.634 2.931-1.233.823-.6 1.494-1.107 2.006-1.486.386-.287.728-.548.995-.787.267-.24.41-.403.431-.492.042-.175-.132-.227-.523-.153a5.302 5.302 0 0 0-.866.26c-.335.126-1.136.31-2.405.557-1.271.248-2.236.061-2.889-.561-.653-.623-.749-1.838-.292-3.647.234-.926.585-1.949 1.049-3.068a85.749 85.749 0 0 1 1.505-3.41c.54-1.155 1.086-2.301 1.64-3.438.554-1.136 1.013-2.66 1.545-3.228.502-.538 2.162-.992 3.677-1.408a56.303 56.303 0 0 1 4.75-1.082 57.315 57.315 0 0 1 4.04-.604c1.278-.142 2.33-.221 3.153-.235a415.387 415.387 0 0 1-.086 5.613c-.042 2.01-.077 3.904-.108 5.681a450.43 450.43 0 0 1-.093 4.574c-.034 1.272-.078 2.04-.134 2.303-.064.306-.466.53-1.209.677-.742.146-1.353.303-1.79.398a.695.695 0 0 0-.455.3 1.712 1.712 0 0 0-.232.577c-.048.218-.041.408.019.565.06.158.164.225.313.2.196-.033.57-.119 1.123-.254.55-.136 1.177-.283 1.876-.442.699-.158 1.436-.322 2.208-.49.773-.167 1.48-.303 2.122-.406 1.923-.306 3.51-.53 4.76-.678 1.25-.148 2.268-.268 3.055-.363a27.237 27.237 0 0 1 1.835-.172c.436-.021.777-.048 1.025-.084.346-.05.547-.227.603-.53.023-.131.018-.364-.018-.698-.035-.334-.152-.488-.347-.46-.247.036-.608.11-1.084.22-.477.112-1.035.214-1.676.308-.443.065-.749.1-.917.104a2.548 2.548 0 0 1-.596-.07c-.293-.719-.539-2.112-.73-4.178-.19-2.067-.354-4.475-.484-7.228-.13-2.75-.212-5.689-.243-8.813-.03-3.123-.009-6.108.061-8.95.07-2.842.18-5.395.321-7.657M92.009 29.128a70.455 70.455 0 0 1 1.976-1.61l.008-.064c.053-.472-.19-.743-.475-.66-.17.051-.439.231-.732.385-.292.154-.74.259-1.342.314a3.056 3.056 0 0 1-1.935-.454 11.789 11.789 0 0 1-1.689-1.269 32.785 32.785 0 0 0-1.505-1.28c-.472-.376-.982-.536-1.533-.479-1.469.153-3.131 1.105-5.015 2.862-1.883 1.757-4.079 4.178-6.618 7.276.1-.646.205-1.25.315-1.813.11-.562.204-1.103.284-1.62.106-.689.168-1.384.186-2.084.017-.7-.034-1.316-.153-1.852-.12-.534-.357-.96-.712-1.276-.353-.315-.83-.436-1.423-.361-.504.064-1.316.378-2.44.946a90.615 90.615 0 0 0-7.083 4.029c-1.163.732-2.028 1.289-2.59 1.664-.302.17-.476.385-.524.645-.048.26.1.389.345.328.178-.044.381-.118.566-.145.185-.026.393-.057.626-.089 1.109-.158 1.981-.06 2.62.295.638.354 1.077 1.022 1.318 2.002.241.98.3 2.301.178 3.962-.123 1.663-.388 3.703-.799 6.12a54.764 54.764 0 0 1-.662 3.285 73.831 73.831 0 0 1-.834 3.244 162.935 162.935 0 0 1-.855 2.93c-.272.902-.504 1.705-.722 2.344-.165.482-.345.828-.497 1.017-.151.19-.246.392-.283.608-.037.215.181.396.658.543.475.147 1.104.168 1.888.065.684-.09 1.53-.35 2.531-.772a56.127 56.127 0 0 0 2.59-1.152c.775-.378 1.765-.883 2.955-1.47 1.19-.586 2.348-1.135 3.475-1.645.048-.005.153-.07.315-.195.16-.123.248-.228.26-.315a1.54 1.54 0 0 0-.033-.504c-.041-.207-.138-.28-.29-.22-.752.255-1.446.42-2.076.494-.582.069-1.067.041-1.452-.08-.386-.123-.661-.419-.826-.884-.164-.465-.242-1.112-.231-1.937.011-.825.121-1.907.33-3.242a37.93 37.93 0 0 1 1.172-5.027 31.008 31.008 0 0 1 1.942-4.928c.764-1.529 1.648-2.82 2.653-3.868 1.002-1.048 2.13-1.643 3.385-1.783.464-.052.887.039 1.267.272.379.234.768.489 1.167.764a9.27 9.27 0 0 0 1.313.75c.477.225 1.043.304 1.698.236.748-.076 1.546-.346 2.39-.812a23.384 23.384 0 0 0 2.518-1.611 45.122 45.122 0 0 0 2.4-1.879M122.389 45.122a.133.133 0 0 0-.112.07.131.131 0 0 1-.11.069c-1.103.861-2.493 1.642-4.172 2.345-1.68.703-3.903 1.128-6.658 1.29-2.031.12-3.894-.05-5.58-.513-1.688-.464-3.092-1.196-4.212-2.204-1.12-1.007-1.943-2.29-2.471-3.852-.528-1.561-.683-3.356-.476-5.383.339-3.321 1.243-6.037 2.69-8.14 1.45-2.102 3.15-3.226 5.13-3.365 1.15-.08 2.194.022 3.135.303.94.282 1.748.65 2.427 1.1.679.452 1.197.925 1.553 1.42.356.493.523.912.498 1.256-.015.217.005.43.06.64.053.212.248.243.583.096.53-.287 1.151-.717 1.862-1.29a32.602 32.602 0 0 0 2.022-1.777 22.59 22.59 0 0 0 1.663-1.753c.471-.558.758-.968.867-1.23.012-.215-.193-.464-.61-.745-.419-.28-1.024-.541-1.807-.78-.785-.24-1.734-.427-2.841-.56-1.11-.131-2.372-.154-3.79-.068-1.74.106-3.775.539-6.121 1.305-2.347.766-4.61 1.937-6.805 3.505-2.197 1.57-4.135 3.59-5.822 6.049-1.687 2.46-2.747 5.402-3.15 8.813-.53 4.493.421 7.9 2.922 10.245 2.5 2.346 6.296 3.31 11.33 2.963 1.759-.121 3.568-.54 5.42-1.252a45.318 45.318 0 0 0 5.342-2.456c1.707-.926 3.226-1.846 4.56-2.766 1.33-.919 2.368-1.65 3.118-2.194.1-.09.156-.22.164-.394a.939.939 0 0 0-.115-.542c-.088-.145-.254-.215-.494-.205M171.452 50.065a11.259 11.259 0 0 1-5.482 1.234c-1.44-.038-3.154-.48-5.126-1.317-1.975-.84-3.865-2.166-5.657-3.985-1.79-1.817-3.311-4.147-4.556-6.993-1.246-2.846-1.853-6.306-1.853-10.386 0-3.428.355-6.455 1.05-9.08.692-2.625 1.654-4.803 2.88-6.531 1.226-1.728 2.659-3.028 4.307-3.896 1.647-.867 3.418-1.281 5.326-1.239 2.18.049 4.24.607 6.194 1.667 1.956 1.061 3.682 2.6 5.186 4.613 1.505 2.012 2.764 4.473 3.774 7.38 1.01 2.908 1.642 6.232 1.873 9.97.197 3.173-.01 6.003-.634 8.486-.625 2.483-1.565 4.566-2.822 6.247-1.257 1.682-2.746 2.958-4.46 3.83m28.74 6.903c-1.108-.692-2.502-1.305-4.182-1.835a53.336 53.336 0 0 0-5.572-1.413c-2.035-.41-4.026-.764-5.976-1.065-1.949-.3-3.734-.55-5.352-.754-1.62-.205-2.855-.385-3.703-.55 2.03-.915 3.968-2.148 5.806-3.706a24.81 24.81 0 0 0 4.715-5.302 23.414 23.414 0 0 0 2.962-6.48c.67-2.337.894-4.747.688-7.227-.286-3.437-1.18-6.591-2.653-9.454-1.473-2.86-3.33-5.332-5.566-7.401a25.628 25.628 0 0 0-7.576-4.877 24.32 24.32 0 0 0-8.818-1.895c-3.385-.09-6.647.512-9.825 1.801a28.443 28.443 0 0 0-8.527 5.375 28.46 28.46 0 0 0-6.122 7.961c-1.567 3.015-2.41 6.22-2.484 9.606-.077 3.516.483 6.728 1.714 9.639 1.232 2.91 2.992 5.407 5.289 7.498 2.297 2.09 5.097 3.737 8.387 4.952 3.291 1.215 6.923 1.862 10.863 1.954l1.047.025c.3.008.622-.007.97-.04 1.15.16 2.33.378 3.537.654 1.207.277 2.435.61 3.55.806 4.084.716 7.953 1.364 10.92 2.409 2.967 1.045 5.393 2.18 7.271 3.38 1.877 1.202 3.252 2.411 4.115 3.617.863 1.207 1.34 2.269 1.424 3.183.082.915-.161 1.579-.734 1.993a3.198 3.198 0 0 1-1.932.614c-.165-.14-.267-.29-.306-.443a27.197 27.197 0 0 1-.118-.494.805.805 0 0 0-.267-.44c-.137-.117-.358-.186-.666-.206a1.69 1.69 0 0 0-1.118.318c-.337.239-.487.596-.448 1.076.039.478.364.877.978 1.197.613.322 1.23.502 1.848.543 1.13.075 2.131-.18 2.995-.767a6.974 6.974 0 0 0 2.114-2.279c.545-.932.94-1.93 1.189-2.99.248-1.062.327-2.029.241-2.9l-.052-.523a5.446 5.446 0 0 0 .925-1.613c.214-.589.294-1.145.241-1.667-.084-.828-.683-1.59-1.792-2.28M241.263 53.171c-.3.168-.8.35-1.498.547-.7.198-1.463.24-2.29.13-1.265-.172-2.424-.901-3.472-2.195-1.045-1.293-1.732-2.946-2.066-4.97-.17-1.031-.348-2.528-.533-4.487-.185-1.96-.348-3.996-.523-6.067-.254-3.006-.423-5.2-.443-6.528-.019-1.327-.12-2.136-.233-2.397-.09-.205-.164-.369-.244-.443-.08-.073-.123-.13-.13-.174-.346-.17-.857-.268-1.537-.292a21.316 21.316 0 0 0-2.292.06c-.849.064-1.704.172-2.565.322-.861.15-1.658.304-2.344.485-.733.193-1.243.376-1.499.495s-.38.25-.356.37c.075.376.28.591.533.599.25.006.517.027.796.058.417.048.735.337.952.868.446.854.881 2.138 1.301 3.852.42 1.715.739 3.583 1.01 5.527.054.383.12.869.184 1.445.063.575.13 1.177.2 1.795.072.62.136 1.209.197 1.763.061.554.116 1.004.168 1.347.141 1.873.036 3.063-.316 3.57-.501.787-1.3 1.434-2.398 1.946-1.099.511-2.554.67-4.356.483-3.51-.363-6.216-1.537-8.088-3.549-1.873-2.012-2.993-4.724-3.387-8.146-.103-.898-.183-2.113-.242-3.64-.06-1.53-.11-3.07-.15-4.619-.04-1.548-.054-2.959-.042-4.226.013-1.268.065-2.074.166-2.398.063-.204.001-.371-.195-.494-.197-.123-.366-.192-.505-.204a1.64 1.64 0 0 0-.508.05c-.202.046-.573.136-1.105.253-.842.186-1.823.416-2.918.707-1.096.292-2.15.57-3.161.831a136.11 136.11 0 0 0-2.602.697c-.721.202-1.16.336-1.286.355-.293.044-.486.156-.486.41 0 .256.19.439.573.55l1.134.208c1.088.205 2.022.858 2.805 1.957.784 1.098 1.28 2.63 1.48 4.596.131 1.28.218 2.603.261 3.961a73.55 73.55 0 0 1 .029 3.818 193.314 193.314 0 0 0-.04 3.176c-.004.934.019 1.635.065 2.104.222 2.222 1.352 4.097 3.416 5.64 2.063 1.542 4.611 2.443 7.62 2.719 1.184.108 2.455.037 3.81-.21a26.388 26.388 0 0 0 4.041-1.083 44.754 44.754 0 0 0 3.836-1.554 43 43 0 0 0 3.21-1.63c.078.514.217 1.122.418 1.82.202.698.45 1.381.743 2.047a7.813 7.813 0 0 0 1.022 1.733c.389.487.78.756 1.174.803.787.094 1.79.015 3.002-.235a40.764 40.764 0 0 0 3.764-.972 48.397 48.397 0 0 0 3.712-1.303c1.177-.469 2.09-.866 2.74-1.195.178-.059.228-.242.148-.546-.079-.304-.313-.485-.7-.54M239.613 21.506c.65.62 1.28 1.185 1.89 1.692.608.506.984.77 1.122.793.277.043.715-.062 1.312-.315a16.64 16.64 0 0 0 1.825-.914 13.949 13.949 0 0 0 1.615-1.07c.457-.358.662-.65.617-.874-.037-.18-.315-.574-.833-1.179a37.72 37.72 0 0 0-1.768-1.917 34.852 34.852 0 0 0-1.903-1.805c-.607-.53-1.028-.836-1.263-.917-.127.023-.483.174-1.065.451-.584.279-1.178.623-1.786 1.029-.609.408-1.167.802-1.672 1.183-.506.381-.74.684-.7.908.033.18.313.558.841 1.136a36.773 36.773 0 0 0 1.768 1.799M291.948 62.87a6.29 6.29 0 0 1-.102-.493.511.511 0 0 0-.428-.438c-.194-.044-.286-.085-.273-.124.011-.038-.11.06-.364.296-.739.63-1.643.966-2.71 1.008-1.068.043-2.505-.128-4.31-.504a52.8 52.8 0 0 1-4.864-1.244 106.427 106.427 0 0 1-4.25-1.405 129.836 129.836 0 0 1-3.527-1.305 36.115 36.115 0 0 0-2.707-.947c.98-.998 2.063-2.218 3.237-3.656a106.201 106.201 0 0 0 3.984-5.242c.134-.182.234-.372.297-.57a1.33 1.33 0 0 1 .367-.556c1.974-2.706 3.452-4.971 4.484-6.802 1.032-1.828 2.057-3.07 3.095-3.719a.219.219 0 0 1 .023-.15c.027-.057.03-.13.005-.219-.036-.133-.125-.3-.266-.497-.14-.197-.235-.301-.28-.312-.642.026-1.412-.006-2.304-.094a24.552 24.552 0 0 1-2.657-.41 68.67 68.67 0 0 1-4.203-1.029 119.974 119.974 0 0 1-3.985-1.178 49.886 49.886 0 0 1-3.397-1.197c-1.024-.407-1.84-.77-2.447-1.096-.354-.193-.618-.379-.794-.56a8.107 8.107 0 0 1-.447-.494 3.273 3.273 0 0 0-.432-.428c-.162-.135-.407-.234-.73-.293-.137-.026-.478.217-1.022.729-.546.512-1.187 1.103-1.926 1.773-.74.67-1.483 1.342-2.232 2.013-.75.672-1.37 1.138-1.856 1.393-.038.037-.042.12-.013.252.048.22.213.406.494.56.281.154.494.242.635.266.41-.393.919-.643 1.526-.75.606-.104 1.658-.025 3.155.244 1.637.294 3.487.697 5.552 1.213 2.064.517 3.96.949 5.689 1.291l1.12.223c-.543 1.194-1.306 2.722-2.31 4.587a158.495 158.495 0 0 1-5.552 9.508 53.675 53.675 0 0 1-2.339 3.413c-.207.28-.417.547-.629.809-.425.095-.925.178-1.496.248-.574.07-1.193.103-1.853.097a11.834 11.834 0 0 1-1.803-.143c-1.078-.18-1.952-.502-2.616-.97a5.957 5.957 0 0 1-1.625-1.692c-.419-.66-.739-1.422-.961-2.284a53.4 53.4 0 0 1-.614-2.672l-.642-3.154a83.236 83.236 0 0 1-1.002-5.947 126.444 126.444 0 0 1-.803-8.266c-.058-.94-.133-1.631-.223-2.07l-.055-.263a2.414 2.414 0 0 0-.474-.998c-.244-.315-.622-.512-1.13-.594-.512-.081-1.322.013-2.439.285-1.117.273-2.27.618-3.458 1.035-1.105.387-2.129.75-3.07 1.083-.941.333-1.56.586-1.848.759-.212.098-.188.292.071.584s.434.444.53.457c.14.02.342-.005.604-.074.262-.069.534-.083.816-.043.517.074.97.235 1.36.483.388.247.729.542 1.022.882.419.529.784 1.242 1.09 2.136.308.896.57 1.912.786 3.049l.436 2.295c.2 1.05.39 2.299.572 3.75.181 1.449.347 2.886.498 4.31.152 1.426.274 2.709.37 3.848.097 1.14.167 1.933.194 2.356.021.336.032.622.049.836.017.215.053.476.11.78.173.918.637 1.73 1.396 2.436.759.706 1.71 1.146 2.853 1.319.99.151 2.203.135 3.629-.043 1.426-.178 2.877-.466 4.313-.798 1.29-.299 2.442-.583 3.437-.883-.825.769-1.697 1.345-2.62 1.716l-.508.297c-.024.334-.033.523-.024.567.055.263.206.416.455.457a61.554 61.554 0 0 0 1.861-.167c.534-.057 1.221-.016 2.063.128 1.381.237 2.877.562 4.487.976 1.61.414 3.225.855 4.847 1.325 1.62.47 3.2.916 4.737 1.34 1.538.423 2.948.763 4.231 1.02 2.072.413 3.896.556 5.466.423 1.57-.133 2.875-.409 3.914-.833 1.039-.423 1.795-.937 2.27-1.542.475-.604.637-1.175.49-1.708"/>
    </g>
</svg>
