<svg xmlns="http://www.w3.org/2000/svg" width="20" height="20" viewBox="0 0 20 20">
    <path fill="#616161" fill-rule="evenodd" d="M19.945 2.85h-3.6c.069-1.541.022-2.85.022-2.85h-6.35a.435.435 0 0 0-.045.002A.433.433 0 0 0 9.928 0H3.56s-.047 1.309.023 2.85H0V4.277h.007c.036 1.163.222 2.717.995 4.309a8.931 8.931 0 0 0 2.806 3.357 9.728 9.728 0 0 0 3.394 1.563c.725.773 1.44 1.2 2.063 1.37v1.587c-.09.472-.63 2.068-4.4 2.068h-.589v1.425H15.68V18.53h-.587c-4.422 0-4.402-2.197-4.402-2.197v-1.458c.624-.17 1.325-.595 2.045-1.365a9.714 9.714 0 0 0 3.414-1.568 8.93 8.93 0 0 0 2.805-3.357c1.055-2.172 1.016-4.277.995-5.407-.002-.126-.004-.235-.004-.327zM2.283 7.963c-.644-1.327-.812-2.662-.85-3.686h2.25c.038.397.087.789.15 1.157.378 2.26.9 4.254 1.886 6.014a7.573 7.573 0 0 1-3.436-3.485zm15.389 0a7.574 7.574 0 0 1-3.462 3.499c.99-1.764 1.506-3.763 1.886-6.028.062-.368.111-.76.15-1.157h2.276c-.037 1.024-.206 2.36-.85 3.686z"/>
</svg>
