<svg xmlns="http://www.w3.org/2000/svg" xmlns:xlink="http://www.w3.org/1999/xlink" width="52" height="42" viewBox="0 0 52 42">
    <defs>
        <path id="a" d="M13.48.045a.644.644 0 0 0-.642.642V1.97c0 .354.29.643.642.643h1.284c.353 0 .642-.29.642-.643V.687a.644.644 0 0 0-.642-.642H13.48zm12.435 6.56a13.886 13.886 0 0 0-1.843-.137c-.767 0-1.514.078-2.246.199V4.54a.644.644 0 0 0-.643-.642h-3.85a.644.644 0 0 0-.643.642v3.854c0 .072.019.138.041.203-.794.5-1.534 1.076-2.208 1.723H7.06a.644.644 0 0 0-.642.643v7.708c0 .06.018.113.034.168a8.022 8.022 0 0 0-4.527 7.219 8.024 8.024 0 0 0 7.06 7.965v.064H39.8v-.016c6.764-.172 12.198-5.7 12.198-12.51 0-6.176-4.473-11.295-10.35-12.324-.533-4.099-4.026-7.267-8.267-7.267-3.273 0-6.097 1.89-7.465 4.634zm-10.51 5.644c0-.354.29-.643.643-.643a.644.644 0 0 1 0 1.285.644.644 0 0 1-.642-.642zm-5.134 2.57v-2.57c0-.354.289-.643.641-.643h2.568c.354 0 .642.29.642.643v2.57a.644.644 0 0 1-.642.641h-2.568a.644.644 0 0 1-.641-.642zm-3.852 7.065v-1.285c0-.353.289-.642.642-.642h1.284c.353 0 .642.289.642.642v1.285a.644.644 0 0 1-.642.642H7.061a.644.644 0 0 1-.642-.642zm4.493-17.985a.644.644 0 0 0-.641.642v3.854c0 .353.289.642.641.642h3.852c.353 0 .642-.289.642-.642V4.54a.644.644 0 0 0-.642-.642h-3.852zm-10.27 0A.644.644 0 0 0 0 4.54v.642c0 .353.289.642.642.642h.642c.353 0 .642-.289.642-.642v-.642a.644.644 0 0 0-.642-.642H.642zm6.42 2.569a.644.644 0 0 0-.643.642v1.285c0 .353.289.642.642.642h1.284c.353 0 .642-.289.642-.642V7.11a.644.644 0 0 0-.642-.642H7.061zm-3.21.642a.644.644 0 0 0-.643.643v.642c0 .353.289.642.642.642h.642c.353 0 .642-.289.642-.642v-.642a.644.644 0 0 0-.642-.643h-.642zm0 3.211a.644.644 0 0 0-.643.643v.642c0 .354.289.643.642.643h.642a.644.644 0 0 0 .642-.643v-.642a.644.644 0 0 0-.642-.643h-.642zm-3.21 3.855a.644.644 0 0 0-.642.642v3.854c0 .353.289.642.642.642h3.851a.644.644 0 0 0 .642-.642v-3.854a.644.644 0 0 0-.642-.642H.642z"/>
        <linearGradient id="b" x1="50%" x2="50%" y1="0%" y2="100%">
            <stop offset="0%" stop-color="#FBF03B"/>
            <stop offset="100%" stop-color="#F7DF1C"/>
        </linearGradient>
    </defs>
    <g fill="none" fill-rule="evenodd">
        <g transform="translate(0 .17)">
            <mask id="c" fill="#fff">
                <use xlink:href="#a"/>
            </mask>
            <path fill="url(#b)" d="M13.48.045a.644.644 0 0 0-.642.642V1.97c0 .354.29.643.642.643h1.284c.353 0 .642-.29.642-.643V.687a.644.644 0 0 0-.642-.642H13.48zm12.435 6.56a13.886 13.886 0 0 0-1.843-.137c-.767 0-1.514.078-2.246.199V4.54a.644.644 0 0 0-.643-.642h-3.85a.644.644 0 0 0-.643.642v3.854c0 .072.019.138.041.203-.794.5-1.534 1.076-2.208 1.723H7.06a.644.644 0 0 0-.642.643v7.708c0 .06.018.113.034.168a8.022 8.022 0 0 0-4.527 7.219 8.024 8.024 0 0 0 7.06 7.965v.064H39.8v-.016c6.764-.172 12.198-5.7 12.198-12.51 0-6.176-4.473-11.295-10.35-12.324-.533-4.099-4.026-7.267-8.267-7.267-3.273 0-6.097 1.89-7.465 4.634zm-10.51 5.644c0-.354.29-.643.643-.643a.644.644 0 0 1 0 1.285.644.644 0 0 1-.642-.642zm-5.134 2.57v-2.57c0-.354.289-.643.641-.643h2.568c.354 0 .642.29.642.643v2.57a.644.644 0 0 1-.642.641h-2.568a.644.644 0 0 1-.641-.642zm-3.852 7.065v-1.285c0-.353.289-.642.642-.642h1.284c.353 0 .642.289.642.642v1.285a.644.644 0 0 1-.642.642H7.061a.644.644 0 0 1-.642-.642zm4.493-17.985a.644.644 0 0 0-.641.642v3.854c0 .353.289.642.641.642h3.852c.353 0 .642-.289.642-.642V4.54a.644.644 0 0 0-.642-.642h-3.852zm-10.27 0A.644.644 0 0 0 0 4.54v.642c0 .353.289.642.642.642h.642c.353 0 .642-.289.642-.642v-.642a.644.644 0 0 0-.642-.642H.642zm6.42 2.569a.644.644 0 0 0-.643.642v1.285c0 .353.289.642.642.642h1.284c.353 0 .642-.289.642-.642V7.11a.644.644 0 0 0-.642-.642H7.061zm-3.21.642a.644.644 0 0 0-.643.643v.642c0 .353.289.642.642.642h.642c.353 0 .642-.289.642-.642v-.642a.644.644 0 0 0-.642-.643h-.642zm0 3.211a.644.644 0 0 0-.643.643v.642c0 .354.289.643.642.643h.642a.644.644 0 0 0 .642-.643v-.642a.644.644 0 0 0-.642-.643h-.642zm-3.21 3.855a.644.644 0 0 0-.642.642v3.854c0 .353.289.642.642.642h3.851a.644.644 0 0 0 .642-.642v-3.854a.644.644 0 0 0-.642-.642H.642z" mask="url(#c)"/>
        </g>
        <path fill="#000" d="M24.8 37.41h4.43v-1.783H24.8v1.782zm-4.284-8.528h12.999v-1.754h-13v1.754zm16.032.878v11.262H17.482V29.76l2.389-6.2.334-.866H21.15l3.407-8.117 10.387 4.367-1.574 3.75h.455l.335.867 2.389 6.199zm-12.615 8.516h6.163V34.76h-6.163v3.517zM35.62 29.76l-2.389-6.2h-.227l-.596 1.42-.561 1.337h-3.325l-3.18-1.337-3.375-1.42h-1.169l-2.388 6.2h17.21z"/>
        <path fill="#FFF" d="M23.838 33.073h6.354v-1.06h-6.354z"/>
    </g>
</svg>
