<svg xmlns="http://www.w3.org/2000/svg" xmlns:xlink="http://www.w3.org/1999/xlink" width="41" height="41" viewBox="0 0 41 41">
    <defs>
        <path id="a" d="M1.21.084a1.15 1.15 0 0 0-1.15 1.15v38.575c0 .635.514 1.149 1.15 1.149h38.575a1.15 1.15 0 0 0 1.149-1.149V9.165L31.182.084H1.21zm.88 3.16a.91.91 0 0 1 .908-.906.91.91 0 0 1 .906.906.91.91 0 0 1-.906.907.91.91 0 0 1-.907-.907zm17.2 24.938a7.756 7.756 0 0 1-4.82-2.791 7.592 7.592 0 0 1-1.207-2.087 7.66 7.66 0 0 1-.52-2.783c0-.98.185-1.92.52-2.783a7.59 7.59 0 0 1 1.207-2.087 7.755 7.755 0 0 1 4.82-2.79c.394-.06.796-.093 1.207-.093.41 0 .813.033 1.207.092a7.755 7.755 0 0 1 4.819 2.791c.507.62.914 1.325 1.207 2.087.336.864.52 1.802.52 2.783 0 .98-.184 1.92-.52 2.783a7.598 7.598 0 0 1-1.207 2.087 7.755 7.755 0 0 1-4.82 2.791 8.202 8.202 0 0 1-1.206.092 8.21 8.21 0 0 1-1.207-.092zm17.8 9.972a.91.91 0 0 1 .906-.907.91.91 0 0 1 .907.907.91.91 0 0 1-.907.906.91.91 0 0 1-.907-.906zm-35 0a.91.91 0 0 1 .908-.907.91.91 0 0 1 .906.907.91.91 0 0 1-.906.906.91.91 0 0 1-.907-.906z"/>
        <linearGradient id="b" x1="50%" x2="50%" y1="0%" y2="100%">
            <stop offset="0%" stop-color="#FBF03B"/>
            <stop offset="100%" stop-color="#F7DF1C"/>
        </linearGradient>
    </defs>
    <g fill="none" fill-rule="evenodd">
        <path fill="#F8DF1C" d="M23.598 19.603l-.755-1.307 1.979-1.425a5.629 5.629 0 0 0-3.328-1.92l-.243 2.427h-1.509l-.243-2.426a5.63 5.63 0 0 0-3.328 1.919l1.979 1.425-.754 1.307-2.222-1.001a5.6 5.6 0 0 0-.335 1.92c0 .674.117 1.32.335 1.919l2.222-1.002.754 1.308-1.979 1.424a5.63 5.63 0 0 0 3.328 1.92l.243-2.427h1.509l.243 2.427a5.628 5.628 0 0 0 3.328-1.92l-1.979-1.424.755-1.308 2.221 1.002c.218-.6.335-1.245.335-1.92 0-.674-.117-1.32-.335-1.92l-2.221 1.002z"/>
        <g>
            <mask id="c" fill="#fff">
                <use xlink:href="#a"/>
            </mask>
            <path fill="url(#b)" d="M1.21.084a1.15 1.15 0 0 0-1.15 1.15v38.575c0 .635.514 1.149 1.15 1.149h38.575a1.15 1.15 0 0 0 1.149-1.149V9.165L31.182.084H1.21zm.88 3.16a.91.91 0 0 1 .908-.906.91.91 0 0 1 .906.906.91.91 0 0 1-.906.907.91.91 0 0 1-.907-.907zm17.2 24.938a7.756 7.756 0 0 1-4.82-2.791 7.592 7.592 0 0 1-1.207-2.087 7.66 7.66 0 0 1-.52-2.783c0-.98.185-1.92.52-2.783a7.59 7.59 0 0 1 1.207-2.087 7.755 7.755 0 0 1 4.82-2.79c.394-.06.796-.093 1.207-.093.41 0 .813.033 1.207.092a7.755 7.755 0 0 1 4.819 2.791c.507.62.914 1.325 1.207 2.087.336.864.52 1.802.52 2.783 0 .98-.184 1.92-.52 2.783a7.598 7.598 0 0 1-1.207 2.087 7.755 7.755 0 0 1-4.82 2.791 8.202 8.202 0 0 1-1.206.092 8.21 8.21 0 0 1-1.207-.092zm17.8 9.972a.91.91 0 0 1 .906-.907.91.91 0 0 1 .907.907.91.91 0 0 1-.907.906.91.91 0 0 1-.907-.906zm-35 0a.91.91 0 0 1 .908-.907.91.91 0 0 1 .906.907.91.91 0 0 1-.906.906.91.91 0 0 1-.907-.906z" mask="url(#c)"/>
        </g>
        <g fill="#000">
            <path d="M8.926 27.485c-3.36-5.574-2.22-12.891 2.734-17.178a13.49 13.49 0 0 1 14.483-2.046l.32.147.852-1.327.824 3.791-3.791.824.892-1.386-.448-.185a11.245 11.245 0 0 0-11.658 1.887c-4.11 3.556-5.07 9.616-2.314 14.25l-1.894 1.223zM20.5 34.03c-1.954 0-3.855-.42-5.651-1.246l-.32-.147-.85 1.323-.825-3.79 3.792-.824-.892 1.387.448.185a11.244 11.244 0 0 0 11.658-1.887c4.11-3.557 5.07-9.617 2.313-14.251l1.895-1.222c3.36 5.573 2.22 12.89-2.734 17.177a13.507 13.507 0 0 1-8.835 3.295"/>
        </g>
    </g>
</svg>
