<svg xmlns="http://www.w3.org/2000/svg" xmlns:xlink="http://www.w3.org/1999/xlink" width="46" height="39" viewBox="0 0 46 39">
    <defs>
        <path id="a" d="M11.901.587a.568.568 0 0 0-.566.565v1.131c0 .312.255.566.566.566h1.134a.568.568 0 0 0 .568-.566v-1.13a.57.57 0 0 0-.568-.566H11.9zM9.635 3.98a.568.568 0 0 0-.567.565v3.393c0 .312.255.567.567.567h3.4a.57.57 0 0 0 .568-.567V4.545a.57.57 0 0 0-.568-.565h-3.4zm-9.068 0A.567.567 0 0 0 0 4.545v.566c0 .31.254.565.567.565h.566a.568.568 0 0 0 .567-.565v-.566a.568.568 0 0 0-.567-.565H.567zm5.668 2.263a.566.566 0 0 0-.567.565v1.13c0 .312.254.567.567.567h1.132a.569.569 0 0 0 .568-.567v-1.13a.568.568 0 0 0-.568-.565H6.235zM3.4 6.808a.568.568 0 0 0-.568.566v.564a.57.57 0 0 0 .568.567h.567a.568.568 0 0 0 .567-.567v-.564a.567.567 0 0 0-.567-.566h-.567zm0 2.828a.568.568 0 0 0-.568.565v.566c0 .31.257.565.568.565h.567a.568.568 0 0 0 .567-.565V10.2a.567.567 0 0 0-.567-.565h-.567zM.567 13.029a.567.567 0 0 0-.567.565v3.394c0 .31.254.566.567.566h3.401a.568.568 0 0 0 .567-.566v-3.394a.568.568 0 0 0-.567-.565H.567z"/>
        <linearGradient id="b" x1="49.997%" x2="49.997%" y1="-.001%" y2="174.56%">
            <stop offset="0%" stop-color="#FBF03B"/>
            <stop offset="100%" stop-color="#F7DF1C"/>
        </linearGradient>
        <path id="d" d="M21.446 4.932a12.205 12.205 0 0 0-1.627-.12c-.679 0-1.337.067-1.984.174V3.114a.568.568 0 0 0-.567-.566h-3.4a.567.567 0 0 0-.566.566v3.392a.53.53 0 0 0 .035.18c-.701.442-1.354.948-1.95 1.518H4.8a.566.566 0 0 0-.567.566v6.787c0 .053.016.1.03.147C1.9 16.85.266 19.261.266 22.06c0 3.616 2.723 6.594 6.235 7.013v.056h27.204v-.014c5.971-.152 10.768-5.02 10.768-11.015 0-5.437-3.948-9.944-9.137-10.85A7.359 7.359 0 0 0 28.036.851a7.361 7.361 0 0 0-6.59 4.08M12.168 9.9c0-.311.254-.566.567-.566.311 0 .567.255.567.566a.567.567 0 0 1-1.133 0m-4.536 2.261V9.901c0-.311.256-.566.567-.566h2.267c.313 0 .566.255.566.566v2.261a.566.566 0 0 1-.566.566H8.2a.567.567 0 0 1-.568-.566m-3.4 6.222v-1.131c0-.312.254-.565.567-.565h1.132c.313 0 .568.253.568.565v1.13a.568.568 0 0 1-.568.566H4.8a.566.566 0 0 1-.567-.565"/>
        <linearGradient id="e" x1="50%" x2="50%" y1="0%" y2="100.001%">
            <stop offset="0%" stop-color="#FBF03B"/>
            <stop offset="100%" stop-color="#F7DF1C"/>
        </linearGradient>
    </defs>
    <g fill="none" fill-rule="evenodd">
        <g>
            <mask id="c" fill="#fff">
                <use xlink:href="#a"/>
            </mask>
            <path fill="url(#b)" d="M11.901.587a.568.568 0 0 0-.566.565v1.131c0 .312.255.566.566.566h1.134a.568.568 0 0 0 .568-.566v-1.13a.57.57 0 0 0-.568-.566H11.9zM9.635 3.98a.568.568 0 0 0-.567.565v3.393c0 .312.255.567.567.567h3.4a.57.57 0 0 0 .568-.567V4.545a.57.57 0 0 0-.568-.565h-3.4zm-9.068 0A.567.567 0 0 0 0 4.545v.566c0 .31.254.565.567.565h.566a.568.568 0 0 0 .567-.565v-.566a.568.568 0 0 0-.567-.565H.567zm5.668 2.263a.566.566 0 0 0-.567.565v1.13c0 .312.254.567.567.567h1.132a.569.569 0 0 0 .568-.567v-1.13a.568.568 0 0 0-.568-.565H6.235zM3.4 6.808a.568.568 0 0 0-.568.566v.564a.57.57 0 0 0 .568.567h.567a.568.568 0 0 0 .567-.567v-.564a.567.567 0 0 0-.567-.566h-.567zm0 2.828a.568.568 0 0 0-.568.565v.566c0 .31.257.565.568.565h.567a.568.568 0 0 0 .567-.565V10.2a.567.567 0 0 0-.567-.565h-.567zM.567 13.029a.567.567 0 0 0-.567.565v3.394c0 .31.254.566.567.566h3.401a.568.568 0 0 0 .567-.566v-3.394a.568.568 0 0 0-.567-.565H.567z" mask="url(#c)"/>
        </g>
        <g transform="translate(1.435 1.432)">
            <mask id="f" fill="#fff">
                <use xlink:href="#d"/>
            </mask>
            <path fill="url(#e)" d="M21.446 4.932a12.205 12.205 0 0 0-1.627-.12c-.679 0-1.337.067-1.984.174V3.114a.568.568 0 0 0-.567-.566h-3.4a.567.567 0 0 0-.566.566v3.392a.53.53 0 0 0 .035.18c-.701.442-1.354.948-1.95 1.518H4.8a.566.566 0 0 0-.567.566v6.787c0 .053.016.1.03.147C1.9 16.85.266 19.261.266 22.06c0 3.616 2.723 6.594 6.235 7.013v.056h27.204v-.014c5.971-.152 10.768-5.02 10.768-11.015 0-5.437-3.948-9.944-9.137-10.85A7.359 7.359 0 0 0 28.036.851a7.361 7.361 0 0 0-6.59 4.08M12.168 9.9c0-.311.254-.566.567-.566.311 0 .567.255.567.566a.567.567 0 0 1-1.133 0m-4.536 2.261V9.901c0-.311.256-.566.567-.566h2.267c.313 0 .566.255.566.566v2.261a.566.566 0 0 1-.566.566H8.2a.567.567 0 0 1-.568-.566m-3.4 6.222v-1.131c0-.312.254-.565.567-.565h1.132c.313 0 .568.253.568.565v1.13a.568.568 0 0 1-.568.566H4.8a.566.566 0 0 1-.567-.565" mask="url(#f)"/>
        </g>
        <path fill="#000" d="M21.25 23.047h-5.47l7.724-7.706 7.723 7.706h-5.472v15.737h-4.504z"/>
    </g>
</svg>
