<svg xmlns="http://www.w3.org/2000/svg" xmlns:xlink="http://www.w3.org/1999/xlink" width="39" height="41" viewBox="0 0 39 41">
    <defs>
        <path id="a" d="M19.853 1.99c-.11-.003-.221-.003-.33-.003C9.25 1.987.81 10.024.13 20.155a19.49 19.49 0 0 0 0 2.643c.063.974.201 1.93.405 2.857.188.87.435 1.715.739 2.534.329.901.724 1.767 1.175 2.6.422.776.897 1.52 1.42 2.226.55.753 1.154 1.464 1.806 2.128.62.63 1.279 1.215 1.977 1.757a19.193 19.193 0 0 0 2.25 1.506 19.68 19.68 0 0 0 2.376 1.156c.8.324 1.628.595 2.478.813.846.212 1.716.373 2.602.469.712.083 1.434.123 2.165.123.109 0 .22 0 .33-.004a19.169 19.169 0 0 0 2.635-.221c8.893-1.374 15.815-8.807 16.428-17.944h-4.293c-.586 6.765-5.614 12.278-12.135 13.58-.857.172-1.736.27-2.635.287-.11.007-.221.007-.33.007-.349 0-.698-.013-1.041-.036a14.81 14.81 0 0 1-2.616-.413 15.32 15.32 0 0 1-3.825-1.533c-.458-.264-.9-.548-1.328-.859a15.36 15.36 0 0 1-2.01-1.724c-.389-.397-.754-.816-1.097-1.255a15.146 15.146 0 0 1-1.446-2.21 15.216 15.216 0 0 1-1.482-4.1 15.93 15.93 0 0 1-.255-1.744 15.871 15.871 0 0 1 0-2.643c.672-7.762 7.19-13.874 15.1-13.874.109 0 .22 0 .33.006v1.976l4.283-4.13L19.853.006V1.99z"/>
        <linearGradient id="b" x1="50%" x2="50%" y1="0%" y2="100%">
            <stop offset="0%" stop-color="#FBF03B"/>
            <stop offset="100%" stop-color="#F7DF1C"/>
        </linearGradient>
    </defs>
    <g fill="none" fill-rule="evenodd">
        <path fill="#000" d="M34.518 19.257c.042.297.079.594.105.898h4.293a18.323 18.323 0 0 0-.24-2.015l-4.158 1.117zm-8.336-11.43a15.7 15.7 0 0 1 1.011.548l2.142-3.716a18.91 18.91 0 0 0-2.03-1.04l-1.123 4.208zm5.663 4.816c.191.265.373.535.544.816l3.71-2.147a18.44 18.44 0 0 0-1.193-1.737l-3.06 3.068zm2.063 4.044l4.142-1.11a19.34 19.34 0 0 0-.725-1.926l-3.74 2.163c.118.288.224.579.323.873zm-4.56-6.772c.267.231.527.469.778.713l3.027-3.036a20.073 20.073 0 0 0-1.637-1.443l-2.168 3.766z"/>
        <g>
            <mask id="c" fill="#fff">
                <use xlink:href="#a"/>
            </mask>
            <path fill="url(#b)" d="M19.853 1.99c-.11-.003-.221-.003-.33-.003C9.25 1.987.81 10.024.13 20.155a19.49 19.49 0 0 0 0 2.643c.063.974.201 1.93.405 2.857.188.87.435 1.715.739 2.534.329.901.724 1.767 1.175 2.6.422.776.897 1.52 1.42 2.226.55.753 1.154 1.464 1.806 2.128.62.63 1.279 1.215 1.977 1.757a19.193 19.193 0 0 0 2.25 1.506 19.68 19.68 0 0 0 2.376 1.156c.8.324 1.628.595 2.478.813.846.212 1.716.373 2.602.469.712.083 1.434.123 2.165.123.109 0 .22 0 .33-.004a19.169 19.169 0 0 0 2.635-.221c8.893-1.374 15.815-8.807 16.428-17.944h-4.293c-.586 6.765-5.614 12.278-12.135 13.58-.857.172-1.736.27-2.635.287-.11.007-.221.007-.33.007-.349 0-.698-.013-1.041-.036a14.81 14.81 0 0 1-2.616-.413 15.32 15.32 0 0 1-3.825-1.533c-.458-.264-.9-.548-1.328-.859a15.36 15.36 0 0 1-2.01-1.724c-.389-.397-.754-.816-1.097-1.255a15.146 15.146 0 0 1-1.446-2.21 15.216 15.216 0 0 1-1.482-4.1 15.93 15.93 0 0 1-.255-1.744 15.871 15.871 0 0 1 0-2.643c.672-7.762 7.19-13.874 15.1-13.874.109 0 .22 0 .33.006v1.976l4.283-4.13L19.853.006V1.99z" mask="url(#c)"/>
        </g>
        <path fill="#000" d="M19.05 29.98l-9.027-6.638 2.187-2.99 6.045 4.444 8.596-11.614 2.982 2.193z"/>
    </g>
</svg>
