<svg xmlns="http://www.w3.org/2000/svg" xmlns:xlink="http://www.w3.org/1999/xlink" width="52" height="35" viewBox="0 0 52 35">
    <defs>
        <path id="a" d="M0 4.484v27.604h13.802v-.016C20.567 31.9 26 26.379 26 19.577c0-6.169-4.472-11.283-10.35-12.311C15.118 3.172 11.624.008 7.383.008 4.173.008 1.395 1.826 0 4.484"/>
        <linearGradient id="b" x1="50%" x2="50%" y1="0%" y2="100%">
            <stop offset="0%" stop-color="#FBF03B"/>
            <stop offset="100%" stop-color="#F7DF1C"/>
        </linearGradient>
    </defs>
    <g fill="none" fill-rule="evenodd">
        <g fill="#000">
            <path d="M26 6.4c-.027.052-.057.101-.083.153a13.806 13.806 0 0 0-1.843-.137c-.767 0-1.514.078-2.247.2V4.49a.644.644 0 0 0-.642-.642h-3.852a.644.644 0 0 0-.642.642v3.85c0 .072.02.139.041.203-.794.5-1.534 1.075-2.208 1.722H7.062a.643.643 0 0 0-.642.642v7.698c0 .06.018.114.034.169-2.678 1.3-4.528 4.035-4.528 7.21 0 4.103 3.085 7.48 7.062 7.957v.063H26V6.401zM8.988 21.816a.644.644 0 0 1-.642.642H7.062a.644.644 0 0 1-.642-.642v-1.283c0-.353.288-.642.642-.642h1.284c.353 0 .642.289.642.642v1.283zm5.136-7.058a.644.644 0 0 1-.643.642h-2.568a.644.644 0 0 1-.641-.642V12.19c0-.353.288-.642.641-.642h2.568c.354 0 .643.289.643.642v2.566zm1.925-1.925a.643.643 0 0 1-.641-.641c0-.353.288-.642.641-.642.354 0 .642.289.642.642a.643.643 0 0 1-.642.641z"/>
            <path d="M10.914 8.983h3.852a.644.644 0 0 0 .642-.642v-3.85a.644.644 0 0 0-.642-.641h-3.852a.643.643 0 0 0-.642.641v3.85c0 .353.288.642.642.642M3.852 8.983h.641a.644.644 0 0 0 .643-.642V7.7a.644.644 0 0 0-.643-.641h-.641a.643.643 0 0 0-.642.641v.642c0 .353.29.642.642.642M13.482 2.566h1.283a.644.644 0 0 0 .642-.64V.641A.644.644 0 0 0 14.765 0h-1.283a.644.644 0 0 0-.642.642v1.283c0 .353.288.641.642.641M7.062 8.983h1.284a.643.643 0 0 0 .642-.642V7.058a.644.644 0 0 0-.642-.642H7.062a.644.644 0 0 0-.642.642V8.34c0 .353.289.642.642.642M5.136 18.607v-3.85a.644.644 0 0 0-.642-.642H.642a.644.644 0 0 0-.642.642v3.85c0 .353.289.641.642.641h3.852a.644.644 0 0 0 .642-.641M.642 5.774h.642a.644.644 0 0 0 .642-.641V4.49a.644.644 0 0 0-.642-.641H.642A.643.643 0 0 0 0 4.49v.642c0 .353.289.641.642.641M3.852 12.19h.641a.644.644 0 0 0 .643-.64v-.643a.644.644 0 0 0-.643-.641h-.641a.643.643 0 0 0-.642.641v.642c0 .353.29.642.642.642"/>
        </g>
        <g transform="translate(26 1.917)">
            <mask id="c" fill="#fff">
                <use xlink:href="#a"/>
            </mask>
            <path fill="url(#b)" d="M0 4.484v27.604h13.802v-.016C20.567 31.9 26 26.379 26 19.577c0-6.169-4.472-11.283-10.35-12.311C15.118 3.172 11.624.008 7.383.008 4.173.008 1.395 1.826 0 4.484" mask="url(#c)"/>
        </g>
    </g>
</svg>
