<svg xmlns="http://www.w3.org/2000/svg" xmlns:xlink="http://www.w3.org/1999/xlink" width="52" height="39" viewBox="0 0 52 39">
    <defs>
        <path id="a" d="M51.848 12.759h-.497l.497-.902v.902zm0-2.686l-.8-1.451.8-1.452v2.903zm0-4.686l-.497-.902h.497v.902zm-23.04.342l-.686-1.244h3.346l-.685 1.244h-1.975zm-7.743 0l-.686-1.244h3.347l-.686 1.244h-1.975zm3.872 2.343l-.989-1.793.988-1.794h1.976l.988 1.794-.99 1.793h-1.973zm7.742 0l-.988-1.793.988-1.794h1.975l.988 1.794-.988 1.793h-1.975zm-15.485 0l-.989-1.793.988-1.794h1.976l.988 1.794-.989 1.793h-1.974zM36.55 5.73l-.686-1.244h3.346l-.686 1.244h-1.974zm11.614 2.343l-.989-1.793.988-1.794h1.976l.988 1.794-.988 1.793h-1.975zM44.294 5.73l-.686-1.244h3.346l-.686 1.244h-1.974zm-3.872 2.343l-.988-1.793.988-1.794h1.975l.988 1.794-.989 1.793h-1.974zM5.58 5.73l-.686-1.244H8.24l-.686 1.244H5.58zM0 4.485h.497L0 5.387v-.902zm0 8.274v-.902l.497.902H0zM0 7.17l.8 1.452-.8 1.452V7.17zm9.451.902L8.462 6.28l.989-1.794h1.975l.988 1.794-.988 1.793H9.45zm3.871-2.343l-.685-1.244h3.346l-.686 1.244h-1.975zm34.842 7.03l-.988-1.794.989-1.794h1.975l.988 1.794-.988 1.794h-1.976zm-46.456 0L.72 10.965l.988-1.794h1.975l.988 1.794-.988 1.794H1.708zm0-4.687L.72 6.28l.988-1.794h1.975l.988 1.794-.988 1.793H1.708zm38.714 4.687l-.988-1.794.988-1.794h1.974l.99 1.794-.99 1.794h-1.974zm-30.971 0l-.989-1.794.99-1.794h1.974l.988 1.794-.988 1.794H9.451zm3.871-2.343l-.988-1.794.988-1.794h1.975l.989 1.794-.99 1.794h-1.974zm-7.742 0L4.59 8.622l.989-1.794h1.974l.989 1.794-.989 1.794H5.58zm7.057 2.343l.685-1.244h1.975l.685 1.244h-3.345zm4.557 0l-.989-1.794.989-1.794h1.975l.988 1.794-.988 1.794h-1.975zm-12.3 0l.686-1.244h1.974l.686 1.244H4.894zm23.914-2.343l-.989-1.794.989-1.794h1.975l.988 1.794-.988 1.794h-1.975zm3.87 2.343l-.987-1.794.988-1.794h1.975l.988 1.794-.988 1.794H32.68zm3.873-2.343l-.989-1.794.989-1.794h1.974l.989 1.794-.989 1.794h-1.974zm7.743 0l-.99-1.794.99-1.794h1.974l.988 1.794-.988 1.794h-1.974zm-8.429 2.343l.686-1.244h1.975l.685 1.244h-3.346zm-7.743 0l.686-1.244h1.975l.685 1.244h-3.346zm-3.186 0l-.988-1.794.989-1.794h1.974l.989 1.794-.988 1.794h-1.976zm-4.557 0l.686-1.244h1.975l.685 1.244H20.38zm23.229 0l.686-1.244h1.974l.685 1.244h-3.345zm-22.543-2.343l-.988-1.794.988-1.794h1.975l.988 1.794-.988 1.794h-1.975zM44.912.192l6.361 3.275H.574L6.936.192h37.976z"/>
        <linearGradient id="b" x1="50%" x2="50%" y1="-.001%" y2="100.001%">
            <stop offset="0%" stop-color="#FBF03B"/>
            <stop offset="100%" stop-color="#F7DF1C"/>
        </linearGradient>
        <path id="d" d="M.038.1h26.068v12.564H.038z"/>
        <path id="f" d="M0 39.104h51.848V.216H0z"/>
    </defs>
    <g fill="none" fill-rule="evenodd">
        <g transform="translate(0 12.448)">
            <mask id="c" fill="#fff">
                <use xlink:href="#a"/>
            </mask>
            <path fill="url(#b)" d="M28.808 5.729l-.686-1.244h3.346l-.685 1.244h-1.975zm-7.743 0l-.686-1.244h3.347l-.686 1.244h-1.975zm3.872 2.343l-.989-1.793.988-1.794h1.976l.988 1.794-.99 1.793h-1.973zm7.742 0l-.988-1.793.988-1.794h1.975l.988 1.794-.988 1.793h-1.975zm-15.485 0l-.989-1.793.988-1.794h1.976l.988 1.794-.989 1.793h-1.974zM36.55 5.73l-.686-1.244h3.346l-.686 1.244h-1.974zm11.614 2.343l-.989-1.793.988-1.794h1.976l.988 1.794-.988 1.793h-1.975zM44.294 5.73l-.686-1.244h3.346l-.686 1.244h-1.974zm-3.872 2.343l-.988-1.793.988-1.794h1.975l.988 1.794-.989 1.793h-1.974zM5.58 5.73l-.686-1.244H8.24l-.686 1.244H5.58zM0 4.485h.497L0 5.387v-.902zm0 8.274v-.902l.497.902H0zM0 7.17l.8 1.452-.8 1.452V7.17zm9.451.902L8.462 6.28l.989-1.794h1.975l.988 1.794-.988 1.793H9.45zm3.871-2.343l-.685-1.244h3.346l-.686 1.244h-1.975zm34.842 7.03l-.988-1.794.989-1.794h1.975l.988 1.794-.988 1.794h-1.976zm-46.456 0L.72 10.965l.988-1.794h1.975l.988 1.794-.988 1.794H1.708zm0-4.687L.72 6.28l.988-1.794h1.975l.988 1.794-.988 1.793H1.708zm38.714 4.687l-.988-1.794.988-1.794h1.974l.99 1.794-.99 1.794h-1.974zm-30.971 0l-.989-1.794.99-1.794h1.974l.988 1.794-.988 1.794H9.451zm3.871-2.343l-.988-1.794.988-1.794h1.975l.989 1.794-.99 1.794h-1.974zm-7.742 0L4.59 8.622l.989-1.794h1.974l.989 1.794-.989 1.794H5.58zm7.057 2.343l.685-1.244h1.975l.685 1.244h-3.345zm4.557 0l-.989-1.794.989-1.794h1.975l.988 1.794-.988 1.794h-1.975zm-12.3 0l.686-1.244h1.974l.686 1.244H4.894zm46.457 0l.497-.902v.902h-.497zm-.303-4.137l.8-1.452v2.903l-.8-1.451zm.303-4.137h.497v.902l-.497-.902zm-22.543 5.93l-.989-1.793.989-1.794h1.975l.988 1.794-.988 1.794h-1.975zm3.87 2.344l-.987-1.794.988-1.794h1.975l.988 1.794-.988 1.794H32.68zm3.873-2.343l-.989-1.794.989-1.794h1.974l.989 1.794-.989 1.794h-1.974zm7.743 0l-.99-1.794.99-1.794h1.974l.988 1.794-.988 1.794h-1.974zm-8.429 2.343l.686-1.244h1.975l.685 1.244h-3.346zm-7.743 0l.686-1.244h1.975l.685 1.244h-3.346zm-3.186 0l-.988-1.794.989-1.794h1.974l.989 1.794-.988 1.794h-1.976zm-4.557 0l.686-1.244h1.975l.685 1.244H20.38zm23.229 0l.686-1.244h1.974l.685 1.244h-3.345zm-22.543-2.343l-.988-1.794.988-1.794h1.975l.988 1.794-.988 1.794h-1.975zM44.912.192l6.361 3.275H.574L6.936.192h37.976z" mask="url(#c)"/>
        </g>
        <g transform="translate(0 .006)">
            <path fill="#000" d="M33.343 21.106c0 1.516-3.322 2.745-7.42 2.745-4.097 0-7.419-1.229-7.419-2.745s3.322-2.745 7.42-2.745c4.097 0 7.42 1.229 7.42 2.745M48.054 16.927v1.884l-.855.85H35.3l-.853-.85v-1.884zM6.602 18.964a1.346 1.346 0 1 1-2.692 0 1.346 1.346 0 0 1 2.692 0"/>
            <path fill="#F8DF1C" d="M37.43 18.294a.503.503 0 1 1-1.006 0 .503.503 0 0 1 1.006 0M39.214 18.294a.503.503 0 1 1-1.005 0 .503.503 0 0 1 1.005 0M40.999 18.294a.503.503 0 1 1-1.006 0 .503.503 0 0 1 1.006 0"/>
            <path fill="#000" d="M43.209 11.743a18.37 18.37 0 0 0-2.16-3.472l-2.386 2.01c.37.471.702.96 1.006 1.462h3.54zM13.12 11.743a15.204 15.204 0 0 1 1.672-2.27 15.557 15.557 0 0 1 15.67-4.64l.647.177-.98 2.06 5.055-1.794L33.39.216l-.94 1.97-.46-.145a18.66 18.66 0 0 0-19.52 5.35 18.415 18.415 0 0 0-2.902 4.352h3.552z"/>
            <g transform="translate(17.556 26.44)">
                <mask id="e" fill="#fff">
                    <use xlink:href="#d"/>
                </mask>
                <path fill="#000" d="M22.683.1a15.278 15.278 0 0 1-2.248 3.308 15.535 15.535 0 0 1-9.616 5.055 15.484 15.484 0 0 1-6.054-.416l-.647-.176.981-2.06-5.06 1.794 1.793 5.06.94-1.966.46.145a18.601 18.601 0 0 0 7.975.718 18.695 18.695 0 0 0 11.55-6.072A18.37 18.37 0 0 0 26.107.1h-3.424z" mask="url(#e)"/>
            </g>
            <path fill="#000" d="M9.113 26.54a18.317 18.317 0 0 0 2.616 4.51l2.385-2.006a15.13 15.13 0 0 1-1.59-2.504H9.114z"/>
            <mask id="g" fill="#fff">
                <use xlink:href="#f"/>
            </mask>
            <path fill="#000" d="M50.06 25.201h1.787v-8.274H50.06zM0 25.201h1.788v-8.274H0z" mask="url(#g)"/>
        </g>
    </g>
</svg>
