<svg xmlns="http://www.w3.org/2000/svg" xmlns:xlink="http://www.w3.org/1999/xlink" width="327" height="212" viewBox="0 0 327 212">
    <defs>
        <filter id="a" width="122.7%" height="136.1%" x="-11.3%" y="-18%" filterUnits="objectBoundingBox">
            <feOffset dy="9" in="SourceAlpha" result="shadowOffsetOuter1"/>
            <feGaussianBlur in="shadowOffsetOuter1" result="shadowBlurOuter1" stdDeviation="4.5"/>
            <feColorMatrix in="shadowBlurOuter1" result="shadowMatrixOuter1" values="0 0 0 0 0 0 0 0 0 0 0 0 0 0 0 0 0 0 0.318973995 0"/>
            <feMerge>
                <feMergeNode in="shadowMatrixOuter1"/>
                <feMergeNode in="SourceGraphic"/>
            </feMerge>
        </filter>
        <path id="b" d="M.024 96.981c0 53.482 43.396 96.837 96.928 96.837 53.531 0 96.927-43.355 96.927-96.837C193.88 43.5 150.483.144 96.952.144 43.42.144.024 43.5.024 96.981"/>
        <linearGradient id="c" x1="0%" y1="50%" y2="50%">
            <stop offset="0%" stop-color="#3B2F67"/>
            <stop offset="100%" stop-color="#FBE405"/>
        </linearGradient>
        <path id="e" d="M0 0h309v38H0z"/>
    </defs>
    <g fill="none" fill-rule="evenodd" filter="url(#a)" transform="translate(9)">
        <g transform="translate(55)">
            <mask id="d" fill="#fff">
                <use xlink:href="#b"/>
            </mask>
            <path fill="url(#c)" d="M.024 96.981c0 53.482 43.396 96.837 96.928 96.837 53.531 0 96.927-43.355 96.927-96.837C193.88 43.5 150.483.144 96.952.144 43.42.144.024 43.5.024 96.981" mask="url(#d)"/>
        </g>
        <path fill="#3B3068" d="M152.25 179.741c-46.09 0-83.455-36.968-83.455-82.57 0-45.603 37.364-82.57 83.456-82.57 46.09 0 83.455 36.967 83.455 82.57 0 45.602-37.365 82.57-83.455 82.57z"/>
        <path fill="#A8907B" d="M147.227 23.19l-22.125 20.214s-5.558 34.478-4.414 35.142c1.144.665 13.192 22.58 13.192 22.58l30.706 3.897 22.824-13.191 1.267-49.402-21.384-18.023-20.066-1.218z"/>
        <path fill="#56483C" d="M127.615 69.854l4.74 19.534-2.37 4.696-2.812-3.897zM183.357 69.854l-4.74 19.534 2.37 4.696 2.812-3.897z"/>
        <path fill="#4C4139" d="M155.486 29.38V4.214s-16.462-7.144-30.384 13.962c-13.921 21.106-27.308 35.068-22.584 51.304v97.249h20.907V67.277l4.19-17.441 8.065-8.118 16.57-8.767 3.236-3.572z"/>
        <path fill="#EACE8B" d="M155.486 29.38c-10.174 16.234-27.871 10.552-27.871 38.64 0 28.086-.676 99.84-.676 99.84h-6.251l1.513-117.279c6.807-11.979 25.08-14.383 33.285-21.202"/>
        <path fill="#FFF3DC" d="M155.486 29.38c-6.892 11.526-26.967 14.611-26.967 40.912s-.904 96.438-.904 96.438h-1.605l-.908-96.762c0-29.873 22.507-27.6 30.384-40.589"/>
        <path fill="#4C4139" d="M155.486 29.38V4.214s16.462-7.144 30.383 13.962c13.922 21.106 27.309 35.068 22.584 51.304v97.249h-20.906V67.277l-4.19-17.441-8.065-8.118-16.57-8.767-3.236-3.572z"/>
        <path fill="#EACE8B" d="M155.486 29.38c10.173 16.234 27.87 10.552 27.87 38.64 0 28.086.676 99.84.676 99.84h6.252L188.771 50.58c-6.808-11.979-25.08-14.383-33.285-21.202"/>
        <path fill="#FFF3DC" d="M155.486 29.38c6.892 11.526 26.967 14.611 26.967 40.912s.904 96.438.904 96.438h1.605l.907-96.762c0-29.873-22.507-27.6-30.383-40.589"/>
        <path fill="#56483C" d="M148.867 66.735s-3.281-9.918-14.057-5.86c-2.57 1.029-3.993.055-3.993.055s1.149 1.57 3.118 1.407c1.422 3.788 4.978 6.036 12.526 4.398 2.183-.56 2.406 0 2.406 0"/>
        <path fill="#FFF3DC" d="M147.227 65.666s-3.83-7.334-12.308-3.6c.657 2.382 2.407 3.789 4.76 4.276 2.351.487 7.548-.676 7.548-.676"/>
        <path fill="#56483C" d="M143.343 63.36c0 1.3-1.065 2.355-2.38 2.355-1.313 0-2.379-1.054-2.379-2.354s1.066-2.354 2.38-2.354c1.314 0 2.38 1.054 2.38 2.354M146.383 59.9s-3.691-6.27-14.029-3.515l14.03 3.515zM162.104 66.735s3.282-9.918 14.057-5.86c2.571 1.029 3.993.055 3.993.055s-1.148 1.57-3.117 1.407c-1.422 3.788-4.978 6.036-12.526 4.398-2.183-.56-2.407 0-2.407 0"/>
        <path fill="#FFF3DC" d="M163.745 65.666s3.829-7.334 12.307-3.6c-.656 2.382-2.407 3.789-4.759 4.276-2.352.487-7.548-.676-7.548-.676"/>
        <path fill="#56483C" d="M167.629 63.36c0 1.3 1.065 2.355 2.379 2.355s2.38-1.054 2.38-2.354-1.066-2.354-2.38-2.354c-1.314 0-2.38 1.054-2.38 2.354M164.588 59.9s3.692-6.27 14.03-3.515l-14.03 3.515z"/>
        <path fill="#BCA491" d="M155.486 43.829c-12.635 0-19.628 4.773-17.4 8.165 2.23 3.392 11.082 3.775 12.805 6.086 1.723 2.31 2.79 2.927 4.595 2.927 1.805 0 2.872-.617 4.594-2.927 1.724-2.311 10.577-2.694 12.805-6.086 2.228-3.392-4.764-8.165-17.4-8.165"/>
        <path fill="#493524" d="M192.242 73.548s1.448.92 1.313 3.084c0 0 3.83-.216 3.555-2.543-.273-2.327-4.868-.541-4.868-.541"/>
        <path fill="#4C4139" d="M49.474 144.334c21.816-5.826 36.878-25.787 43.402-26.518L97 122.524l-1.005 15.253h10.7l4.411-72.021-32.184 9.022-13.422 27.196-16.025 42.36zM261.498 144.334c-21.816-5.826-39.996-25.554-46.52-26.285l-2.216 5.774 2.216 13.954h-10.7l-4.412-72.021 32.185 9.022 13.422 27.196 16.025 42.36z"/>
        <path fill="#FFF3DC" d="M86.402 84.656c-2.058 1.718-7.219 1.847-7.219 1.847-16.222 25.138-9.845 52.112-29.709 57.831l-.687-33.845L67 82.803l8-3.856 11.402 5.709z"/>
        <path fill="#EACE8B" d="M49.474 144.334c4.605-.849 10.393-17.934 13.096-28.122 5.784-21.795 9.314-27.5 12.798-29.222 3.485-1.723 6.842-2.314 6.842-2.314l-9.795-2.198-9.23 4.755-14.398 30.683.687 26.418z"/>
        <path fill="#FFF3DC" d="M104.691 100.824c1.504.379 2.844.216 3.72-1.461.875-1.678 1.039-3.03-.93-5.115-1.97-2.083-6.195-5.56-6.195-5.56l-3.728-6.21c3.154.244 3.749.377 11.85-1.015 5.908-1.014 9.97 2.8 14.03 3.992 3.446 1.082 10.954 3.03 12.02-1.07 1.067-4.099-1.805-5.032-6.932-6.818-5.128-1.786-9.272-3.044-9.272-3.044l-6.071-3.085s-1.108-4.586-.164-6.778c.943-2.192 2.215-2.354 3.364-5.398a70.202 70.202 0 0 1 2.297-5.399s4.85.082 5.974-2.679c1.123-2.76-.04-4.79-.04-4.79h-2.02s2.24-3.976 2.855-6.29c3.445-4.302 6.974-11.649 1.19-12.988l-5.457 11.243-7.794 10.268-7.302 2.354-10.502 10.96-7.056 9.172.642 11.365L105.1 98.55l-.41 2.273z"/>
        <path fill="#EACE8B" d="M122.823 75.416c1.723.974 4.39 3.206 2.585 6.047-1.805 2.841-5.128 2.639-5.128 2.639l-12.06-6.13-4.308-2.313s-5.366-1.948-6.354-1.908c-.99.041-2.876 3.604-2.836 5.601.04 1.998 5.251 9.904 5.251 9.904s7.795 5.033 8.205 7.062c.41 2.03-.656 5.074-3.487 4.506l-2.174-5.033-15.138-15.099 2.79-8.97 2.707-1.705 10.01 1.096 19.937 4.303zM124.136 46.273l.478.122s.67 5.723-3.541 6.264c-4.212.541-8.205.38-8.205.38s-6.071 2.218-6.345 2.272c-.273.054-2.297 3.626-3.336 3.788-1.04.163-.328 2.598-.93 3.572-.602.974-1.914 2.165-1.914 2.165l-2.785-1.11 1.062-5.71 6.59-7.738 8.315-2.002 10.611-2.003zM126.351 27.603l.287-.487s3.405 3.369-2.502 10.472l-3.98 8.32-2.584-.609 3.364-8.158 5.415-9.538z"/>
        <path fill="#B79F8D" d="M111.49 45.256l5.672-7.506s7.384-6.251 9.19-10.147c2.87 2.76-2.708 10.065-2.708 10.065l-3.909 7.588-5.527 1.423-2.718-1.423z"/>
        <path fill="#A8907B" d="M95.338 56.015c-7.712 5.114-19.937 5.032-24.04 9.74-2.461 7.388-2.297 17.535 8.78 19.808 0 0 3.445-.081 5.743-1.543l7.794 8.524c3.692 3.653 8.615 4.87 11.076 8.28 2.38.568 3.856-3.004 3.036-4.709-.82-1.704-8.082-6.737-8.082-6.737l-8.492-13.963 3.282 2.273v-2.273l.657.975.902-3.085-3.118-1.704 5.744 1.623 5.415 2.191 16.41 8.037s3.035-.081 4.347-2.922c1.313-2.842-1.969-5.115-1.969-5.115l-10.338-4.708-6.974-4.952-5.866-2.678 1.682-.487-.656-4.222s2.871-4.464 6.481-5.682l-.82 1.867s3.692-1.299 6.4-1.867c3.282.244 7.794.325 9.845-1.38 2.051-1.705 1.56-5.033 1.56-5.033l-6.318-1.46s-8.533.405-12.882 1.298c-2.871 4.22-6.153 7.55-9.6 9.904"/>
        <path fill="#8E7965" d="M95.994 63.726s-2.133 1.218-2.543 4.06l-.575-2.599 3.118-1.46zM87.38 72.493s-4.431.893-5.17 2.923l1.56-2.436 3.61-.487zM100.67 65.756l-2.05 2.029v2.354l.41.974s-.328-2.11 1.64-5.357M85.41 82.803s-3.774-3.166-3.938-6.413v4.708l3.938 1.705z"/>
        <path fill="#A8907B" d="M114.003 53.863l-2.898 1.056-1.08 1.704s3.199-1.258 3.978-2.76M98.004 75.416l-2.01 3.41 1.563 3.652L97 78.947z"/>
        <path fill="#56483C" d="M104.773 99.904s.014-1.245 1.921-2.002c0 0-1.884-2.034-3.671-1.083-1.788.951 1.75 3.085 1.75 3.085M121.346 81.72c.274-2.219 2.079-3.95 2.079-3.95s-2.735-2.11-4.923 0 2.844 3.95 2.844 3.95M122.594 46.395s-1.85.311-1.576 2.746c-2.844-.378-4.165-1.704-3.067-2.746 1.098-1.042 4.643 0 4.643 0"/>
        <path fill="#A8907B" d="M71.298 65.756c-7.548 10.877-36.1 37.503-37.577 56.985-1.477 19.483 15.753 21.593 15.753 21.593s7.133-18.759 10.502-30.847c4.25-15.252 11.322-29.06 11.322-29.06s2.994.54 5.681.188c2.688-.351-5.68-18.86-5.68-18.86"/>
        <path fill="#8E7965" d="M69 72.493c-.163 2.68 1.013 5.764 1.013 5.764-5.114 6.007-27.431 30.36-27.923 47.894C39.956 99.32 67.032 84.589 69 72.493"/>
        <path fill="#FFF3DC" d="M222.355 84.656c2.058 1.718 7.218 1.847 7.218 1.847 16.223 25.138 9.845 52.112 29.71 57.831l.687-33.845-18.214-27.686-7.999-3.856-11.402 5.709z"/>
        <path fill="#EACE8B" d="M259.282 144.334c-4.604-.849-10.392-17.934-13.095-28.122-5.785-21.795-9.314-27.5-12.799-29.222-3.485-1.723-6.842-2.314-6.842-2.314l9.795-2.198 9.23 4.755 14.399 30.683-.688 26.418z"/>
        <path fill="#FFF3DC" d="M204.066 100.824c-1.505.379-2.845.216-3.72-1.461-.875-1.678-1.04-3.03.93-5.115 1.969-2.083 6.194-5.56 6.194-5.56l3.729-6.21c-3.154.244-3.75.377-11.851-1.015-5.907-1.014-9.969 2.8-14.03 3.992-3.446 1.082-10.953 3.03-12.02-1.07-1.067-4.099 1.805-5.032 6.933-6.818 5.128-1.786 9.271-3.044 9.271-3.044l6.071-3.085s1.108-4.586.165-6.778c-.944-2.192-2.215-2.354-3.364-5.398a70.283 70.283 0 0 0-2.297-5.399s-4.851.082-5.974-2.679c-1.123-2.76.039-4.79.039-4.79h2.021s-2.24-3.976-2.855-6.29c-3.446-4.302-6.974-11.649-1.19-12.988l5.456 11.243 7.794 10.268 7.303 2.354 10.502 10.96 7.056 9.172-.642 11.365-15.932 16.073.41 2.273z"/>
        <path fill="#EACE8B" d="M185.933 75.416c-1.722.974-4.39 3.206-2.584 6.047 1.805 2.841 5.128 2.639 5.128 2.639l12.06-6.13 4.308-2.313s5.365-1.948 6.354-1.908c.989.041 2.875 3.604 2.835 5.601-.04 1.998-5.25 9.904-5.25 9.904s-7.795 5.033-8.205 7.062c-.41 2.03.656 5.074 3.487 4.506l2.174-5.033 15.137-15.099-2.79-8.97-2.707-1.705-10.01 1.096-19.937 4.303zM184.62 46.273l-.478.122s-.67 5.723 3.542 6.264c4.211.541 8.204.38 8.204.38s6.071 2.218 6.345 2.272c.274.054 2.297 3.626 3.337 3.788 1.039.163.328 2.598.93 3.572.601.974 1.914 2.165 1.914 2.165l2.785-1.11-1.062-5.71-6.591-7.738-8.314-2.002-10.611-2.003zM182.405 27.603l-.287-.487s-3.405 3.369 2.503 10.472l3.979 8.32 2.584-.609-3.364-8.158-5.415-9.538z"/>
        <path fill="#B79F8D" d="M197.267 45.256l-5.673-7.506s-7.383-6.251-9.189-10.147c-2.871 2.76 2.708 10.065 2.708 10.065l3.908 7.588 5.527 1.423 2.719-1.423z"/>
        <path fill="#A8907B" d="M213.419 56.015c7.712 5.114 19.937 5.032 24.04 9.74 2.46 7.388 2.297 17.535-8.78 19.808 0 0-3.446-.081-5.743-1.543l-7.795 8.524c-3.692 3.653-8.614 4.87-11.075 8.28-2.38.568-3.857-3.004-3.036-4.709.82-1.704 8.081-6.737 8.081-6.737l8.492-13.963-3.282 2.273v-2.273l-.656.975-.903-3.085 3.118-1.704-5.743 1.623-5.415 2.191-16.41 8.037s-3.035-.081-4.348-2.922c-1.313-2.842 1.97-5.115 1.97-5.115l10.337-4.708 6.974-4.952 5.866-2.678-1.682-.487.657-4.222s-2.872-4.464-6.482-5.682l.82 1.867s-3.692-1.299-6.4-1.867c-3.281.244-7.793.325-9.845-1.38-2.05-1.705-1.559-5.033-1.559-5.033l6.318-1.46s8.533.405 12.881 1.298c2.872 4.22 6.154 7.55 9.6 9.904"/>
        <path fill="#8E7965" d="M212.762 63.726s2.134 1.218 2.544 4.06l.574-2.599-3.118-1.46zM221.377 72.493s4.43.893 5.169 2.923l-1.559-2.436-3.61-.487zM208.086 65.756l2.05 2.029v2.354l-.41.974s.329-2.11-1.64-5.357M223.346 82.803s3.774-3.166 3.938-6.413v4.708l-3.938 1.705z"/>
        <path fill="#A8907B" d="M194.753 53.863l2.898 1.056 1.081 1.704s-3.2-1.258-3.979-2.76M210.752 75.416l2.01 3.41-1.563 3.652.558-3.531z"/>
        <path fill="#56483C" d="M203.983 99.904s-.014-1.245-1.921-2.002c0 0 1.884-2.034 3.672-1.083 1.787.951-1.75 3.085-1.75 3.085M187.41 81.72c-.274-2.219-2.079-3.95-2.079-3.95s2.736-2.11 4.923 0c2.188 2.11-2.844 3.95-2.844 3.95M186.163 46.395s1.849.311 1.575 2.746c2.845-.378 4.166-1.704 3.068-2.746-1.099-1.042-4.643 0-4.643 0"/>
        <path fill="#A8907B" d="M237.458 65.756c7.549 10.877 36.1 37.503 37.578 56.985 1.477 19.483-15.754 21.593-15.754 21.593s-7.132-18.759-10.501-30.847c-4.251-15.252-11.323-29.06-11.323-29.06s-2.994.54-5.681.188c-2.687-.351 5.681-18.86 5.681-18.86"/>
        <path fill="#8E7965" d="M239.756 72.493c.164 2.68-1.012 5.764-1.012 5.764 5.114 6.007 27.43 30.36 27.923 47.894 2.133-26.83-24.942-41.562-26.911-53.658"/>
        <path fill="#F9F8F7" d="M110.822 125.65a1.777 1.777 0 0 1-1.502-1.487l-.507-3.342-.506 3.342a1.778 1.778 0 0 1-1.502 1.487l-3.379.5 3.379.502a1.777 1.777 0 0 1 1.502 1.486l.506 3.343.507-3.343a1.777 1.777 0 0 1 1.502-1.486l3.379-.501-3.379-.501zM113.018 91.168a.889.889 0 0 1-.751-.743l-.253-1.672-.254 1.672a.888.888 0 0 1-.75.743l-1.69.25 1.69.25c.388.058.692.36.75.744l.254 1.672.253-1.672a.89.89 0 0 1 .751-.743l1.69-.25-1.69-.251zM115.795 130.375a.89.89 0 0 1-.75-.744l-.254-1.671-.253 1.671a.889.889 0 0 1-.752.744l-1.689.25 1.69.25a.89.89 0 0 1 .75.744l.254 1.671.253-1.671a.89.89 0 0 1 .751-.743l1.69-.25-1.69-.251zM135.924 70.863a.89.89 0 0 1-.751-.744l-.253-1.671-.254 1.671a.889.889 0 0 1-.75.744l-1.69.25 1.69.25a.89.89 0 0 1 .75.744l.254 1.671.253-1.67a.89.89 0 0 1 .75-.744l1.69-.25-1.69-.251zM177.009 72.243a.89.89 0 0 1-.752-.744l-.253-1.671-.253 1.671a.889.889 0 0 1-.751.744l-1.69.25 1.69.25a.89.89 0 0 1 .75.744l.254 1.672.253-1.672a.89.89 0 0 1 .752-.743l1.689-.25-1.69-.251zM195.94 93.833a.89.89 0 0 1-.75-.743l-.253-1.672-.254 1.672a.889.889 0 0 1-.751.743l-1.69.25 1.69.251a.89.89 0 0 1 .751.743l.254 1.672.253-1.672a.89.89 0 0 1 .75-.743l1.69-.25-1.69-.25zM194.97 128.565a.889.889 0 0 1-.751-.743l-.253-1.671-.254 1.671a.888.888 0 0 1-.75.743l-1.69.251 1.69.25c.387.058.692.36.75.744l.254 1.671.253-1.671a.89.89 0 0 1 .75-.743l1.69-.25-1.69-.252zM150.925 60.208a.89.89 0 0 1-.752-.744l-.253-1.671-.253 1.671a.89.89 0 0 1-.751.744l-1.69.25 1.69.25a.89.89 0 0 1 .751.744l.253 1.671.253-1.671a.89.89 0 0 1 .752-.744l1.69-.25-1.69-.25zM156.387 64.335a1.777 1.777 0 0 1-1.502-1.487l-.507-3.343-.506 3.343a1.778 1.778 0 0 1-1.502 1.487l-3.38.5 3.38.502a1.777 1.777 0 0 1 1.502 1.486l.506 3.343.507-3.343a1.777 1.777 0 0 1 1.502-1.486l3.379-.501-3.379-.501zM201.875 116.47a1.778 1.778 0 0 1-1.502-1.487l-.507-3.342-.506 3.342a1.778 1.778 0 0 1-1.503 1.487l-3.378.5 3.378.502a1.778 1.778 0 0 1 1.503 1.486l.506 3.343.507-3.343a1.778 1.778 0 0 1 1.502-1.486l3.379-.501-3.38-.501zM194.251 140.597a1.778 1.778 0 0 1-1.502-1.487l-.507-3.342-.506 3.342a1.778 1.778 0 0 1-1.502 1.487l-3.379.5 3.379.502a1.778 1.778 0 0 1 1.502 1.487l.506 3.342.507-3.342a1.777 1.777 0 0 1 1.502-1.487l3.379-.501-3.379-.501z"/>
        <g transform="translate(0 140)">
            <mask id="f" fill="#fff">
                <use xlink:href="#e"/>
            </mask>
            <path fill="#3B3068" d="M309 19c0 10.493-69.172 19-154.5 19S0 29.493 0 19 69.172 0 154.5 0 309 8.507 309 19" mask="url(#f)"/>
        </g>
        <path fill="#3B3068" d="M257.74 154.456c0 7.201-46.277 13.04-103.362 13.04-57.084 0-103.361-5.839-103.361-13.04 0-7.2 46.277-13.038 103.361-13.038 57.085 0 103.362 5.837 103.362 13.038"/>
        <path fill="#3B3068" d="M232.947 154.456c0 5.474-35.177 9.912-78.569 9.912s-78.568-4.438-78.568-9.912c0-5.474 35.176-9.91 78.568-9.91 43.392 0 78.569 4.436 78.569 9.91"/>
        <path fill="#756356" d="M223 153c0 4.97-30.668 9-68.5 9-37.831 0-68.5-4.03-68.5-9s30.669-9 68.5-9c37.832 0 68.5 4.03 68.5 9"/>
        <path fill="#BCB2AA" d="M202 153c0 3.314-21.267 6-47.5 6s-47.5-2.686-47.5-6 21.267-6 47.5-6 47.5 2.686 47.5 6"/>
        <path fill="#E0DAD5" d="M190 153c0 2.21-15.894 4-35.5 4s-35.5-1.79-35.5-4c0-2.209 15.894-4 35.5-4s35.5 1.791 35.5 4"/>
        <path fill="#FFF" d="M196 113c0 22.644-18.58 41-41.5 41S113 135.644 113 113s18.58-41 41.5-41S196 90.356 196 113"/>
        <path fill="#F9F8F7" d="M193 113c0 20.987-17.237 38-38.5 38S116 133.987 116 113s17.237-38 38.5-38S193 92.013 193 113"/>
    </g>
</svg>
